<svg width="127" height="127" viewBox="0 0 127 127" fill="none" xmlns="http://www.w3.org/2000/svg">
<path d="M63.5037 127.007C98.5758 127.007 127.007 98.5758 127.007 63.5037C127.007 28.4316 98.5758 0 63.5037 0C28.4316 0 0 28.4316 0 63.5037C0 98.5758 28.4316 127.007 63.5037 127.007Z" fill="white"/>
<path d="M62.0917 66.6843C61.7653 67.6804 61.2618 68.6094 60.6054 69.4266C59.8817 70.2662 58.9914 70.9462 57.9909 71.4234C56.9904 71.9006 55.9017 72.1646 54.7938 72.1986C52.6813 72.3949 50.5693 71.8194 48.8484 70.5785C48.4681 70.2675 48.1082 69.9324 47.7708 69.5752C47.7337 70.1995 47.6891 70.7643 47.6668 71.344C47.6668 71.5521 47.5925 71.6412 47.3621 71.6412H44.4638C44.1591 71.6412 44.1813 71.4852 44.1962 71.292C44.3226 69.278 44.2854 67.2194 44.2928 65.1831V49.8739C44.2928 49.5914 44.3523 49.5023 44.6495 49.5097H47.4884C47.7709 49.5097 47.8303 49.584 47.8303 49.8516V58.2717C47.9873 58.0922 48.1562 57.9233 48.3357 57.7663C49.547 56.6187 51.1047 55.9052 52.7649 55.7374C54.8588 55.4164 56.9987 55.8454 58.8069 56.9488C59.8262 57.572 60.6848 58.426 61.3134 59.4419C61.9421 60.4578 62.3232 61.6073 62.4261 62.7975C62.5179 63.6621 62.5179 64.534 62.4261 65.3986C62.2924 65.8074 62.1883 66.2384 62.0917 66.6843ZM53.6493 69.7982C54.5825 69.7968 55.4963 69.5316 56.2852 69.0333C57.0742 68.5349 57.7062 67.8237 58.1083 66.9816C58.6733 65.8299 58.8951 64.54 58.7474 63.2657C58.5245 60.5383 56.7409 58.3608 53.8351 58.1304C52.7113 57.9813 51.5696 58.2033 50.5836 58.7627C49.5976 59.3221 48.8213 60.1883 48.3728 61.2295C47.8751 62.4215 47.7106 63.7265 47.8972 65.0048C48.2019 67.8511 50.3794 69.7982 53.6493 69.7982Z" fill="#0064D2"/>
<path d="M62.0917 66.6845C62.1883 66.2386 62.2924 65.8076 62.389 65.3617C63.2362 63.5186 64.8712 62.8201 66.7068 62.389C68.3112 62.0855 69.9417 61.9412 71.5745 61.958H74.8891C75.1715 61.958 75.2235 61.8688 75.2235 61.6013C75.2235 59.5204 74.1013 58.309 71.9015 58.0786C70.8766 57.9239 69.8299 58.0026 68.8397 58.309C68.3854 58.4221 67.971 58.658 67.642 58.991C67.3129 59.3239 67.0819 59.7411 66.9743 60.1967C66.9727 60.2271 66.9646 60.2569 66.9506 60.284C66.9366 60.3111 66.917 60.3349 66.8931 60.3539C66.8693 60.3728 66.8416 60.3865 66.8121 60.394C66.7825 60.4015 66.7517 60.4026 66.7216 60.3973H63.4814C63.1321 60.3973 63.2585 60.1595 63.2882 60.0035C63.3796 59.4206 63.5905 58.8629 63.9077 58.3654C64.2248 57.8679 64.6414 57.4414 65.1313 57.1125C66.2015 56.407 67.4242 55.9663 68.6985 55.8269C70.5186 55.5377 72.377 55.5957 74.1756 55.9978C75.4006 56.243 76.5255 56.8455 77.4084 57.7294C77.4339 57.7515 77.4646 57.7668 77.4976 57.7739C77.4976 57.8483 77.4976 57.9152 77.5868 57.9226C77.9729 58.4697 78.2923 59.061 78.538 59.6839C78.9765 62.2998 78.6718 64.9381 78.7461 67.5689C78.7907 68.8472 78.7461 70.118 78.8502 71.3888C78.8502 71.6043 78.8501 71.6712 78.6049 71.6712H75.8403C75.6545 71.6712 75.5802 71.6192 75.5653 71.4259C75.5653 70.8165 75.4836 70.2072 75.439 69.568L74.8147 70.1849C73.4941 71.4398 71.7534 72.1578 69.9321 72.1988C68.4859 72.354 67.0232 72.2072 65.6366 71.7678C64.8354 71.5462 64.103 71.1264 63.5068 70.5471C62.9107 69.9678 62.47 69.2478 62.2255 68.4533C62.0949 67.8734 62.0498 67.2775 62.0917 66.6845ZM73.3804 64.3213V64.3881H70.601C69.5299 64.3808 68.465 64.5515 67.4499 64.8935C67.1123 64.9959 66.8027 65.1744 66.545 65.4154C66.2873 65.6563 66.0884 65.9532 65.9636 66.2832C65.7425 66.9249 65.7841 67.6279 66.0792 68.2391C66.3743 68.8502 66.8991 69.3199 67.5391 69.5457H67.6506C68.5557 69.8824 69.5264 70.0052 70.4868 69.9046C71.4473 69.8041 72.3715 69.4829 73.1872 68.9661C74.8296 67.9331 75.2755 66.2684 75.2458 64.4327C75.2458 64.2321 75.112 64.2692 74.9931 64.2692L73.3804 64.3213Z" fill="#F5AF02"/>
<path d="M44.2556 62.5377V64.8415H30.6185C30.2841 64.8415 30.2172 64.9307 30.2469 65.2428C30.346 66.468 30.8909 67.6143 31.7784 68.4648C32.6659 69.3153 33.8343 69.811 35.0627 69.8579C36.239 69.9749 37.4241 69.7477 38.4738 69.2039C39.2003 68.8224 39.7649 68.1918 40.0642 67.4277C40.0884 67.3477 40.141 67.2793 40.2123 67.2354C40.2835 67.1916 40.3683 67.1754 40.4506 67.1899H43.505C43.7652 67.1899 43.8097 67.2568 43.7503 67.4946C43.5352 68.3194 43.1331 69.0837 42.575 69.7281C42.017 70.3725 41.318 70.8797 40.5324 71.2104C38.5773 72.0635 36.4299 72.379 34.3121 72.1245C33.094 72.0507 31.8999 71.7534 30.7894 71.2476C29.7995 70.8101 28.9287 70.1419 28.2499 69.2989C27.5711 68.4559 27.104 67.4626 26.8878 66.4021C26.4492 64.5515 26.5264 62.616 27.1108 60.8061C27.4336 59.7237 28.0214 58.7389 28.8207 57.9409C29.62 57.1428 30.6058 56.5567 31.6887 56.2356C34.0786 55.4277 36.6611 55.3861 39.0758 56.1167C42.093 57.0233 43.6983 59.1339 44.1813 62.1884C44.2135 62.3031 44.2383 62.4198 44.2556 62.5377ZM35.4045 62.4856H40.2648C40.4358 62.4856 40.6067 62.5302 40.5844 62.233C40.5666 61.4882 40.3506 60.7617 39.9588 60.1282C39.5669 59.4947 39.0133 58.9771 38.3549 58.6286C37.2611 58.0999 36.0371 57.9011 34.8323 58.0564C33.7248 58.1052 32.6702 58.5435 31.8544 59.294C31.0386 60.0446 30.514 61.0591 30.3733 62.1586C30.3287 62.4187 30.3733 62.4856 30.6557 62.4856C32.2163 62.4782 33.8141 62.4856 35.4045 62.4856Z" fill="#E53238"/>
<path d="M78.538 59.6764C78.2938 59.0527 77.9744 58.4612 77.5867 57.9151C77.5867 57.8556 77.5867 57.759 77.4975 57.7664C77.3953 57.3626 77.2271 56.9784 76.9996 56.6294C76.799 56.2206 76.7841 56.2281 77.2374 56.2281H80.552C80.664 56.2139 80.7776 56.2376 80.8746 56.2955C80.9716 56.3535 81.0464 56.4422 81.087 56.5476C82.945 60.2932 84.8153 64.0388 86.698 67.7843L86.9135 68.1931C86.9952 68.0444 87.0621 67.933 87.1141 67.8215C88.982 64.0759 90.8473 60.3254 92.7102 56.5699C92.7472 56.457 92.8223 56.3604 92.9226 56.2967C93.0229 56.233 93.1422 56.2061 93.2601 56.2206C94.3675 56.2206 95.4896 56.2206 96.6341 56.2206L95.6234 58.2346L90.0868 69.0626L85.9176 77.1928C85.8433 77.3415 85.7987 77.4975 85.5609 77.4975H81.8451L82.9227 75.4464C83.5469 74.2573 84.1761 73.0683 84.8103 71.8792C84.8646 71.7992 84.8937 71.7047 84.8937 71.6079C84.8937 71.5112 84.8646 71.4167 84.8103 71.3367C82.7988 67.5317 80.7749 63.7242 78.7386 59.9142C78.6717 59.8399 78.6494 59.721 78.538 59.6764Z" fill="#86B817"/>
<path d="M98.6556 56.9116C98.6928 56.7927 98.5813 56.5177 98.7225 56.5102C98.8637 56.5028 99.1758 56.3542 99.3839 56.4657C99.4404 56.5021 99.5062 56.5215 99.5734 56.5215C99.6407 56.5215 99.7065 56.5021 99.7629 56.4657C99.8537 56.4108 99.9625 56.394 100.066 56.4191C100.169 56.4442 100.257 56.509 100.313 56.5994C100.363 56.6844 100.382 56.7845 100.365 56.8818C100.365 57.0528 100.491 57.3872 100.253 57.3872C100.016 57.3872 100.179 57.0899 100.142 56.9264C100.105 56.7629 100.142 56.6217 99.919 56.6217C99.696 56.6217 99.6737 56.7555 99.644 56.9041C99.6248 56.9898 99.6248 57.0786 99.644 57.1642C99.644 57.246 99.7183 57.4169 99.5325 57.4095C99.3467 57.4021 99.4434 57.246 99.4285 57.1419C99.4136 57.0379 99.5177 56.6366 99.1907 56.6366C98.8637 56.6366 98.9157 56.9413 98.9009 57.1717C98.9009 57.2608 98.9752 57.4243 98.7894 57.4243C98.6036 57.4243 98.6853 57.2683 98.6705 57.1717C98.6581 57.0855 98.6532 56.9985 98.6556 56.9116Z" fill="#B3B3B3"/>
<path d="M98.4846 57.3277C98.1948 57.4912 98.0387 57.4317 97.9793 57.1642C97.9198 56.8967 98.0833 56.7257 97.786 56.5771C97.7266 56.5771 97.9644 56.317 98.0461 56.2575C98.1279 56.1981 98.2022 56.5102 98.4252 56.5102C98.4921 56.5102 98.4252 56.6143 98.3211 56.6663C98.0982 56.8075 98.1948 57.2237 98.4846 57.3277Z" fill="#B3B3B3"/>
</svg>
