<svg width="127" height="127" viewBox="0 0 127 127" fill="none" xmlns="http://www.w3.org/2000/svg">
<path d="M63.5037 127.007C98.5758 127.007 127.007 98.5758 127.007 63.5037C127.007 28.4316 98.5758 0 63.5037 0C28.4316 0 0 28.4316 0 63.5037C0 98.5758 28.4316 127.007 63.5037 127.007Z" fill="white"/>
<path d="M60.4717 74.6139C64.247 67.2566 62.6492 58.9331 61.2148 51.1893C60.2785 44.5899 62.4857 37.7379 66.5136 32.5283C63.9051 37.5224 64.3287 43.4306 65.1685 48.878C65.5029 51.3974 66.2758 53.9093 66.3501 56.4732C66.5143 63.0132 64.4404 69.4132 60.4717 74.6139Z" fill="black"/>
<path d="M71.9164 84.5426C66.7886 84.6467 66.6325 76.5015 72.1617 76.665C76.9625 76.8731 77.1855 84.5203 71.9164 84.5426ZM69.2187 80.6187C69.2001 81.3438 69.4642 82.0477 69.9552 82.5816C70.4461 83.1156 71.1254 83.4377 71.8496 83.4799C72.2556 83.4755 72.656 83.3844 73.0241 83.2129C73.3921 83.0413 73.7193 82.7932 73.9838 82.4851C74.2483 82.177 74.444 81.816 74.5578 81.4262C74.6717 81.0364 74.701 80.6268 74.6439 80.2248C74.5817 79.513 74.242 78.8543 73.6981 78.391C73.1542 77.9276 72.4498 77.6969 71.7372 77.7486C71.0246 77.8004 70.361 78.1304 69.8897 78.6675C69.4185 79.2045 69.1774 79.9054 69.2187 80.6187Z" fill="black"/>
<path d="M79.1549 80.6264V77.0666C79.1549 76.8957 79.1995 76.8437 79.3778 76.8437C80.8642 76.9328 82.5735 76.4795 83.7477 77.5868C84.6692 78.6124 84.3942 80.6635 83.0491 81.1912C82.9228 81.2507 82.9079 81.2878 82.9896 81.4067C83.6585 82.3877 84.4165 83.339 85.0259 84.3794C85.0259 84.4388 84.9665 84.3794 84.9293 84.3794H83.6659C83.5544 84.3794 83.5173 84.3051 83.4727 84.2382C83.0788 83.6437 82.6849 83.0491 82.2836 82.4546C81.5405 81.3473 81.8675 81.5331 80.5521 81.5182C80.4183 81.5182 80.3811 81.5628 80.3811 81.704V84.1564C80.3811 84.3348 80.3365 84.3943 80.1582 84.3794C79.9798 84.3645 79.0806 84.5503 79.1475 84.1787C79.1549 83.012 79.1549 81.8229 79.1549 80.6264ZM80.9608 77.8395C80.775 77.8767 80.3663 77.7057 80.3811 78.003V80.396C80.3811 80.5149 80.3811 80.5669 80.5446 80.5669C80.9968 80.5832 81.4495 80.5583 81.8972 80.4926C82.1973 80.4895 82.4867 80.381 82.7148 80.1859C82.9429 79.9909 83.0951 79.7218 83.1447 79.4258C83.1943 79.1298 83.1382 78.8258 82.9862 78.567C82.8342 78.3083 82.596 78.1112 82.3134 78.0104C81.8748 77.8684 81.4134 77.8104 80.9534 77.8395H80.9608Z" fill="black"/>
<path d="M58.5468 80.6111V77.0662C58.5468 76.8878 58.5988 76.8358 58.7772 76.8433C58.9555 76.8507 59.8473 76.6872 59.7805 77.0365V79.6673C59.7805 79.8308 59.8325 79.8754 59.996 79.8754H63.3328C63.5112 79.8754 63.5558 79.8234 63.5483 79.6524V77.0588C63.5483 76.8878 63.6003 76.8358 63.7638 76.8433C63.9273 76.8507 64.8117 76.6798 64.7448 77.0439V84.1412C64.7448 84.3715 64.7448 84.3715 64.5219 84.3715H63.7787C63.6301 84.3715 63.5929 84.3195 63.5929 84.1709V81.0793C63.5929 80.9009 63.5409 80.8489 63.37 80.8564H59.9737C59.8028 80.8564 59.7656 80.9084 59.7656 81.0719V84.1486C59.7656 84.3195 59.7136 84.379 59.5426 84.3715H58.7103C58.5468 84.3715 58.5096 84.3121 58.5096 84.1635C58.5468 82.9818 58.5542 81.7928 58.5468 80.6111Z" fill="black"/>
<path d="M90.243 82.6179H88.987C88.9626 82.6137 88.9376 82.6144 88.9134 82.62C88.8893 82.6256 88.8665 82.636 88.8464 82.6505C88.8263 82.6651 88.8093 82.6835 88.7965 82.7047C88.7836 82.7259 88.7751 82.7495 88.7715 82.774C88.6303 83.2571 88.4668 83.7327 88.3256 84.2157C88.3212 84.2423 88.3114 84.2677 88.297 84.2904C88.2825 84.3131 88.2636 84.3327 88.2414 84.3479C88.2192 84.3632 88.1942 84.3738 88.1678 84.3792C88.1414 84.3846 88.1142 84.3846 88.0878 84.3792H87.2109C86.9954 84.3792 86.9879 84.3792 87.0622 84.1637C87.8649 81.793 88.6749 79.4372 89.4701 77.0665C89.5816 76.6131 90.3099 76.9104 90.6889 76.8212C90.7172 76.8159 90.7464 76.8163 90.7746 76.8225C90.8027 76.8286 90.8294 76.8403 90.853 76.857C90.8765 76.8736 90.8965 76.8948 90.9117 76.9193C90.9269 76.9438 90.9371 76.9711 90.9416 76.9996C91.7492 79.3827 92.5617 81.7583 93.3792 84.1266C93.4609 84.3644 93.4535 84.3644 93.2008 84.3644H92.3685C92.3115 84.3708 92.2543 84.3552 92.2087 84.3206C92.163 84.286 92.1324 84.2351 92.1232 84.1786C91.982 83.703 91.8334 83.2273 91.707 82.7517C91.6922 82.4916 90.5105 82.67 90.243 82.6179ZM90.243 78.1589C89.9086 79.244 89.5741 80.3215 89.2249 81.4066C89.2249 81.5255 89.2249 81.5701 89.3438 81.5701H91.1868C91.3206 81.5701 91.328 81.5255 91.2909 81.4066C90.9639 80.329 90.6294 79.244 90.2876 78.1589H90.243Z" fill="black"/>
<path d="M41.5431 80.6111V77.0662C41.5431 76.8953 41.5877 76.8433 41.7586 76.8433H46.0764C46.2473 76.8433 46.3142 76.8878 46.2994 77.0662C46.2845 77.2446 46.4777 77.9283 46.0987 77.906H43.022C42.7767 77.906 42.7767 77.906 42.7767 78.1438V79.6896C42.7767 79.8382 42.8213 79.8754 42.9625 79.8754H45.0583C45.4447 79.8754 45.192 80.4476 45.2738 80.6929C45.3555 80.9381 45.2218 80.8712 45.088 80.8712H42.9923C42.8213 80.8712 42.7693 80.9158 42.7693 81.0868V83.1899C42.7693 83.3386 42.8213 83.3831 42.97 83.3757H46.0764C46.2473 83.3757 46.3142 83.4203 46.2994 83.5987C46.2845 83.777 46.4703 84.4384 46.0987 84.4087H41.7512C41.5877 84.4087 41.5431 84.3641 41.5431 84.2006V80.6111Z" fill="black"/>
<path d="M50.2605 80.5889V77.0291C50.2605 76.8582 50.3051 76.8062 50.4834 76.8062H52.6535C54.6898 76.8062 55.864 78.1587 55.1654 80.1653C54.608 81.5327 52.9359 81.5476 51.6799 81.5104C51.5239 81.5104 51.4793 81.555 51.4793 81.7036V84.1264C51.4793 84.3716 51.4793 84.3716 51.2489 84.3716H50.4611C50.3051 84.3716 50.2531 84.3196 50.2531 84.1635C50.2605 82.9744 50.2605 81.7854 50.2605 80.5889ZM51.4867 79.1769C51.5313 79.3627 51.3752 80.6112 51.5908 80.5294C52.1383 80.5669 52.6884 80.5294 53.2257 80.418C53.5508 80.3615 53.8406 80.1794 54.0325 79.911C54.2244 79.6426 54.303 79.3095 54.2513 78.9836C54.2091 78.7234 54.087 78.4827 53.9019 78.295C53.7168 78.1072 53.4779 77.9817 53.2183 77.9358C52.6752 77.8294 52.1202 77.7969 51.5685 77.8392C51.3752 77.75 51.5313 78.9836 51.4867 79.1769Z" fill="black"/>
<path d="M35.9025 76.7098C36.1403 76.6503 37.6712 76.9848 37.6638 77.2597L37.3517 78.1664C37.3517 78.2927 37.2402 78.2259 37.1956 78.1664C35.4269 76.8064 33.4798 78.7461 35.8876 79.846C36.8835 80.329 38.028 80.9979 38.0057 82.2538C38.0495 82.7267 37.9242 83.1998 37.652 83.589C37.3799 83.9782 36.9785 84.2582 36.5193 84.3793C35.624 84.6278 34.6691 84.546 33.8291 84.1489C33.6878 84.0969 33.5169 84.0374 33.6135 83.8516C34.2675 82.3653 33.8588 83.2645 35.3154 83.4355C36.341 83.7104 37.6118 82.5957 36.4896 81.6593C36.0153 81.3713 35.5182 81.1227 35.0033 80.9161C34.4954 80.7502 34.0669 80.4022 33.8004 79.9391C33.5338 79.4761 33.4482 78.9307 33.5599 78.4083C33.6716 77.8858 33.9727 77.4231 34.4053 77.1095C34.8378 76.7959 35.3712 76.6535 35.9025 76.7098Z" fill="black"/>
</svg>
