<svg width="127" height="127" viewBox="0 0 127 127" fill="none" xmlns="http://www.w3.org/2000/svg">
<g clip-path="url(#clip0_352_1613)">
<path d="M63.5037 127.007C98.5759 127.007 127.007 98.5759 127.007 63.5037C127.007 28.4316 98.5759 0 63.5037 0C28.4316 0 0 28.4316 0 63.5037C0 98.5759 28.4316 127.007 63.5037 127.007Z" fill="white"/>
<path d="M99.8744 80.6113C99.8422 80.4649 99.7566 80.3358 99.6343 80.2492C99.512 80.1626 99.3617 80.1248 99.213 80.1431C99.0928 80.1386 98.9754 80.1798 98.8844 80.2584C98.7934 80.337 98.7356 80.4472 98.7225 80.5667C98.6705 80.916 98.7745 81.1612 99.0272 81.2504C99.1561 81.3023 99.2983 81.3107 99.4324 81.2745C99.5665 81.2383 99.6851 81.1594 99.7704 81.0498C99.815 80.9829 99.7704 80.8863 99.8819 80.8342V81.1761C99.7342 81.286 99.5642 81.3621 99.3839 81.399C99.2388 81.4345 99.0859 81.4191 98.9507 81.3556C98.8155 81.292 98.7061 81.1841 98.6408 81.0498C98.5766 80.8981 98.5593 80.7307 98.5911 80.5691C98.6229 80.4075 98.7023 80.2591 98.8191 80.1431C98.9605 80.0507 99.1258 80.0015 99.2948 80.0015C99.4637 80.0015 99.629 80.0507 99.7704 80.1431L99.8744 80.2323V80.6113Z" fill="#FF0019"/>
<path d="M68.9957 51.1597C69.1726 51.7482 69.3165 52.3462 69.4268 52.9507C69.5778 53.9617 69.6102 54.9867 69.5234 56.0052C69.3896 57.9324 69.2608 59.8597 69.1369 61.787C69.0032 63.9323 68.8644 66.085 68.7208 68.2451C68.7208 68.6167 68.7208 68.6167 68.2972 68.6167C67.8736 68.6167 67.8587 68.6167 67.881 68.2006C68.0147 65.758 68.1535 63.313 68.2972 60.8655C68.2972 60.7837 68.3417 60.702 68.2972 60.6054C68.1719 60.7646 68.0046 60.8856 67.8141 60.9547C67.7101 60.9547 67.7472 61.0959 67.7323 61.1776C67.4155 62.9474 67.3057 64.7481 67.4054 66.5433V68.4161C67.4054 68.5944 67.3533 68.6465 67.1824 68.639C66.8977 68.6241 66.6124 68.6241 66.3278 68.639C66.1345 68.639 66.0899 68.587 66.0899 68.4012C66.1395 66.7712 66.1866 65.1437 66.2311 63.5186C66.2311 62.6937 66.2311 61.8688 66.298 61.0513C66.298 60.9101 66.298 60.8209 66.1271 60.7689C65.9562 60.7169 65.6589 60.5757 65.3839 60.4642C65.3839 61.3708 65.3096 62.2478 65.2799 63.1173C65.2204 64.8761 65.1635 66.6349 65.109 68.3938C65.109 68.5796 65.0569 68.639 64.8712 68.6316C64.5964 68.6167 64.321 68.6167 64.0462 68.6316C63.8604 68.6316 63.8307 68.5796 63.8381 68.4012C63.9273 66.4838 64.0091 64.5665 64.0983 62.6491C64.1874 60.7317 64.2766 59.0001 64.3584 57.1719C64.4401 55.3437 64.507 53.7311 64.5962 52.0144C64.5962 51.6799 64.3435 51.5759 64.1949 51.3752C64.1577 51.3232 64.1057 51.3752 64.0834 51.3752C63.8593 51.6159 63.714 51.9193 63.6672 52.2447C63.5483 54.4742 63.3848 56.7037 63.2436 58.9333L62.8869 64.4921C62.8051 65.7853 62.7234 67.0784 62.6491 68.3715C62.6491 68.5424 62.5971 68.6167 62.3964 68.6093C62.0397 68.6093 61.6532 68.6093 61.3188 68.6093C61.1479 68.6093 61.1182 68.5573 61.1256 68.4012C61.2148 67.1824 61.2891 65.9636 61.3708 64.7448C61.4848 63.1544 61.5913 61.5591 61.6904 59.9588L62.1289 53.3521C62.1289 52.8095 62.1957 52.2745 62.2329 51.732C62.2329 51.5907 62.2329 51.5536 62.0694 51.6056C61.3931 51.836 61.408 51.8286 61.3262 52.5346L60.8357 58.584L60.4344 63.9125C60.323 65.3988 60.2041 66.8851 60.0851 68.3715C60.0851 68.5498 60.0257 68.6539 59.8176 68.6242C59.6095 68.5944 59.2528 68.6985 59.0744 68.5721C58.8961 68.4458 59.0298 68.0965 59.0001 67.829C58.9254 66.6954 58.9928 65.5569 59.2008 64.4401C59.2561 63.9465 59.2859 63.4504 59.29 62.9538C59.4312 59.3123 59.5798 55.6782 59.7284 52.0292C59.7661 51.675 59.7358 51.3168 59.6392 50.9739C59.5134 51.0815 59.4271 51.2279 59.394 51.3901C58.924 53.2343 58.6745 55.1277 58.6508 57.0307C58.5245 60.1595 58.3833 63.2882 58.1529 66.417C58.1083 67.0784 58.0637 67.7398 58.034 68.4086C58.034 68.5944 57.9671 68.6465 57.7888 68.6316H57.2239C57.0902 68.6316 57.0605 68.6316 57.0827 68.4681C57.5955 65.3394 57.5138 62.166 57.6847 59.015C57.8111 56.6146 57.8482 54.2141 58.1529 51.8211V51.6651C57.8451 51.9059 57.6 52.2174 57.4383 52.5732C57.2766 52.929 57.2031 53.3185 57.2239 53.7088C57.3815 56.1174 57.3592 58.5345 57.1571 60.9398C57.0976 62.1809 57.0307 63.4294 56.9638 64.6556C56.9638 64.9009 56.9267 65.1461 56.9118 65.4434C56.641 65.114 56.4891 64.703 56.4808 64.2766C56.4808 60.8828 56.4808 57.4865 56.4808 54.0878C56.4312 53.512 56.4113 52.934 56.4213 52.3562C56.4213 52.1407 56.4733 51.9103 56.4956 51.613C56.1735 51.9207 55.9841 52.342 55.968 52.7872C55.968 54.5263 55.8714 56.2653 55.8417 57.9894C55.8642 58.6615 55.9589 59.3292 56.1241 59.9811C56.348 61.2216 56.398 62.4872 56.2727 63.7415C56.2727 63.8307 56.2727 63.905 56.1538 63.9273C55.6712 64.0521 55.2237 64.286 54.8458 64.6111C54.6924 64.674 54.5271 64.7026 54.3615 64.6949C54.1959 64.6872 54.034 64.6433 53.8871 64.5665C52.8893 63.5167 51.7945 62.5637 50.6172 61.7201C50.5357 61.6445 50.4487 61.575 50.3571 61.512C49.3639 60.8151 48.5987 59.8404 48.1573 58.7103C47.9293 58.1108 47.7479 57.4946 47.6148 56.8672C47.5182 56.4511 47.7114 56.2207 48.135 56.1241C48.5965 56.0264 49.029 55.8228 49.3984 55.5295C49.5173 55.4329 49.5767 55.3437 49.4504 55.2025C49.3759 55.1173 49.3134 55.0223 49.2646 54.9201C49.2279 54.8484 49.1649 54.7936 49.0887 54.7673C49.0125 54.741 48.9291 54.7451 48.8559 54.7789H48.8039C47.8613 55.1994 47.0085 55.7974 46.2919 56.5402C46.0636 56.7919 45.9205 57.1092 45.8832 57.4469C45.8452 57.962 45.9244 58.4791 46.1149 58.9592C46.3054 59.4393 46.6023 59.87 46.9831 60.2189C48.2022 61.5647 49.6209 62.7152 51.1894 63.6301C52.0441 64.1577 52.8987 64.6779 53.7236 65.2502C54.2099 65.6542 54.8314 65.8587 55.4626 65.8224C55.6531 65.8077 55.8444 65.8077 56.0349 65.8224C56.5328 65.8224 56.5477 65.8224 56.6963 66.3055C56.8968 67.0136 56.8602 67.7678 56.5923 68.4532C56.5833 68.494 56.5591 68.5299 56.5245 68.5534C56.49 68.5769 56.4477 68.5862 56.4065 68.5796H55.21L55.5295 67.6506C55.5639 67.6073 55.5826 67.5536 55.5826 67.4983C55.5826 67.4429 55.5639 67.3893 55.5295 67.3459C55.2956 67.0588 55.02 66.8083 54.712 66.6027C52.594 65.3988 50.5354 64.128 48.4397 62.872C48.0219 62.5977 47.6312 62.2842 47.2729 61.9356C46.3801 61.1336 45.6682 60.1506 45.1846 59.0522C44.998 58.7039 44.9178 58.3085 44.9542 57.9151C44.9691 57.8116 44.9691 57.7065 44.9542 57.603C44.9382 57.059 45.1265 56.5287 45.4819 56.1166C45.5356 56.0506 45.6011 55.9951 45.6751 55.9531C47.6148 54.6972 49.5247 53.4115 51.4867 52.2373C52.49 51.6205 53.6047 51.182 54.6154 50.58C55.5351 50.0903 56.5484 49.8015 57.5881 49.7328C58.0117 49.6808 58.4353 49.6065 58.8738 49.547C59.107 49.5221 59.3285 49.4319 59.5129 49.2869C59.8548 49.0417 60.1074 48.6775 60.5459 48.5438H60.5905C60.6486 48.2429 60.6122 47.9314 60.4865 47.652C60.0227 47.1776 59.6184 46.6485 59.2825 46.0764C59.1602 45.8446 59.0797 45.593 59.0447 45.3333C58.7846 44.3894 58.5319 43.4382 58.3015 42.4944C58.2534 42.3522 58.2534 42.1981 58.3015 42.0559C58.3684 41.8924 58.4353 41.7215 58.4948 41.5505C58.5299 41.3817 58.5987 41.2216 58.697 41.0799C58.7954 40.9382 58.9212 40.8177 59.067 40.7256C59.3395 40.5235 59.5484 40.2476 59.669 39.9304C59.7241 39.8023 59.8247 39.699 59.9514 39.6406C60.4576 39.41 60.9261 39.1043 61.3411 38.7339C61.4339 38.6474 61.5561 38.5996 61.683 38.6002C62.46 38.5695 63.2319 38.46 63.9868 38.2732C64.513 38.1609 65.062 38.2428 65.5326 38.5036C65.937 38.6969 66.3879 38.7716 66.8331 38.7191C66.9641 38.7086 67.0947 38.7435 67.2029 38.8179C67.3112 38.8924 67.3905 39.0018 67.4277 39.1278C67.4277 39.2393 67.4945 39.3433 67.5317 39.4474C67.6484 39.6401 67.7102 39.8612 67.7102 40.0865C67.7102 40.3118 67.6484 40.5329 67.5317 40.7256C67.4104 40.9195 67.3387 41.1403 67.3232 41.3684C67.3076 41.5966 67.3486 41.8251 67.4425 42.0336C67.5976 42.4898 67.6607 42.9723 67.6283 43.4531C67.627 43.4992 67.638 43.5449 67.6602 43.5854C67.6824 43.6259 67.715 43.6597 67.7546 43.6834C67.9256 43.8321 68.1039 43.9658 68.2749 44.1219C68.3668 44.1914 68.4278 44.2943 68.4445 44.4083C68.4611 44.5224 68.4323 44.6384 68.364 44.7313C68.3186 44.7938 68.2569 44.8426 68.1857 44.8725C67.8661 45.0063 67.7546 45.1921 67.8513 45.5191V45.6008C67.921 45.7846 67.9398 45.9837 67.9058 46.1773C67.8718 46.3709 67.7862 46.5517 67.658 46.7007C67.6002 46.7849 67.5692 46.8847 67.5692 46.9868C67.5692 47.089 67.6002 47.1887 67.658 47.2729C67.9256 47.6965 67.8438 47.9492 67.4054 48.1945C67.0677 48.3383 66.7229 48.4648 66.3723 48.5735C66.2609 48.6255 66.1048 48.6552 66.1048 48.7964C66.1048 48.9376 66.2609 48.9897 66.3872 49.0343C66.796 49.1903 67.2047 49.3241 67.6134 49.4727C69.825 50.2602 71.9888 51.1759 74.0939 52.215C74.6677 52.5435 75.2166 52.9136 75.7363 53.3223C76.3996 53.7553 77.002 54.2752 77.5273 54.8681C78.1048 55.4662 78.7285 56.0178 79.3927 56.518C79.6445 56.7316 79.8625 56.9822 80.0392 57.2611C80.4851 57.9151 80.9384 58.5691 81.4141 59.2082C81.6048 59.5535 81.7284 59.9317 81.7782 60.323C81.7782 60.427 81.7262 60.479 81.6667 60.5385C80.9087 61.2965 80.1656 62.0546 79.4372 62.8126C79.3454 62.8953 79.243 62.9652 79.1325 63.0207C76.747 64.3509 74.354 65.6664 72.0427 67.123C71.7603 67.3013 71.5002 67.502 71.2252 67.6952C70.9077 67.8584 70.5667 67.9713 70.2145 68.0296C70.0436 68.0742 69.9619 68.1485 69.9767 68.3343C69.9916 68.5201 69.9024 68.6539 69.6497 68.639C69.1592 68.639 69.1741 68.639 69.2112 68.1485C69.345 66.4987 69.4639 64.8489 69.5903 63.199C69.7538 61.0513 69.8727 58.8961 70.0882 56.7483C70.1454 55.6919 70.0831 54.6323 69.9024 53.5899C69.8429 53.1217 69.7538 52.6535 69.7315 52.1704C69.7241 52.0344 69.6853 51.9019 69.6183 51.7833C69.5513 51.6647 69.4577 51.5632 69.345 51.4867C69.2208 51.3864 69.104 51.2771 68.9957 51.1597ZM55.4478 50.9739C55.3437 50.8996 55.2768 50.9739 55.21 51.0334L50.9145 53.3223C50.7361 53.4189 50.5652 53.523 50.3868 53.6047C50.2084 53.6865 50.3125 53.7608 50.3348 53.8425C50.3571 53.9243 50.4314 53.9392 50.5131 53.9094C50.9746 53.7449 51.4263 53.5538 51.8657 53.3372C52.921 52.7501 53.9466 52.1184 54.9944 51.5164C55.1013 51.4615 55.1955 51.3849 55.271 51.2915C55.3465 51.1981 55.4017 51.0899 55.4329 50.9739H55.4478ZM71.0543 54.8904V54.8458L71.9535 56.3322C72.0137 56.4053 72.0937 56.4595 72.1839 56.4882C72.7116 56.7781 73.2541 57.0159 73.7669 57.3131C74.0121 57.4469 74.1385 57.3131 74.2797 57.1868C74.4209 57.0605 74.2351 56.9639 74.2053 56.8598C74.1756 56.7558 74.0567 56.674 73.9527 56.6071C73.0609 56.0349 72.1765 55.4924 71.2847 54.935C71.2252 54.9276 71.1732 54.8087 71.0617 54.8904H71.0543ZM67.1155 44.7982C67.3552 44.7087 67.5786 44.5807 67.7769 44.4192C67.8141 44.382 67.881 44.3672 67.8736 44.2928C67.8661 44.2185 67.3533 43.8321 67.2344 43.8915C66.7753 44.0025 66.2964 44.0025 65.8373 43.8915C65.712 43.8846 65.5913 43.8426 65.4888 43.7703C65.3863 43.698 65.3062 43.5984 65.2576 43.4828C65.1833 43.3341 65.1981 43.2747 65.3393 43.2004C65.6738 43.0592 66.0008 42.918 66.3278 42.7619C66.4541 42.7099 66.5953 42.6281 66.5581 42.4795C66.544 42.3995 66.5019 42.3271 66.4392 42.2754C66.3766 42.2236 66.2975 42.1959 66.2163 42.1971C65.8989 42.149 65.5749 42.1679 65.2652 42.2523C64.9555 42.3368 64.6669 42.485 64.4178 42.6876C64.3398 42.7548 64.2521 42.81 64.1577 42.8511C63.925 42.9269 63.7211 43.0723 63.5736 43.2677C63.4261 43.463 63.342 43.6989 63.3328 43.9435C63.3328 44.0253 63.3328 44.0996 63.2065 44.0996C63.1193 44.1177 63.0292 44.1157 62.9429 44.0938C62.8567 44.0719 62.7765 44.0307 62.7085 43.9733C62.5709 43.8397 62.4244 43.7156 62.2701 43.6017C62.1267 43.5104 61.9581 43.467 61.7885 43.4777C61.6188 43.4883 61.457 43.5526 61.3262 43.6611C61.2445 43.7652 61.1033 43.8321 61.1181 44.0104C61.0942 44.2488 61.1201 44.4895 61.1943 44.7173C61.2685 44.945 61.3894 45.1548 61.5492 45.3333C61.6086 45.3853 61.6384 45.4596 61.6904 45.5116C61.7436 45.5652 61.7802 45.6329 61.796 45.7066C61.8118 45.7804 61.8061 45.8572 61.7796 45.9278C61.6681 46.3663 61.5863 46.8122 61.4674 47.2506C61.408 47.4736 61.512 47.8229 61.1404 47.8823C61.1385 47.8996 61.1385 47.9171 61.1404 47.9344C61.1404 48.2614 61.1404 48.5809 61.1404 48.9005C61.1402 48.9244 61.1472 48.9478 61.1604 48.9677C61.1737 48.9876 61.1926 49.003 61.2148 49.012C61.8613 49.4133 62.5153 49.822 63.1693 50.2159C63.3402 50.3199 63.4294 50.2159 63.4294 50.045C63.4294 49.7105 63.4294 49.3835 63.4963 49.0565C63.505 48.9917 63.4949 48.9257 63.4673 48.8665C63.4396 48.8072 63.3955 48.7571 63.3402 48.7221C63.1173 48.5512 62.9018 48.3654 62.6788 48.187C62.4559 48.0087 62.5004 47.8526 62.6119 47.7709C62.8354 47.5545 63.1167 47.4074 63.422 47.3473C64.482 47.2525 65.5504 47.3252 66.5879 47.5628C66.7885 47.6074 66.9966 47.6148 67.0858 47.429C67.175 47.2432 66.9892 47.0872 66.9 46.9311C66.8108 46.775 66.6919 46.9311 66.7737 46.7453C66.8554 46.5595 66.8405 46.5446 66.9297 46.4852C67.0189 46.4257 67.1229 46.396 67.2196 46.344C67.3162 46.292 67.3533 46.2994 67.3162 46.2102C67.3044 46.1784 67.2809 46.1522 67.2506 46.1371C67.2202 46.1219 67.1852 46.1188 67.1527 46.1285L66.796 46.2028C66.6696 46.2028 66.5879 46.3217 66.521 46.2028C66.4817 46.1421 66.4646 46.0697 66.4727 45.9979C66.4809 45.926 66.5137 45.8592 66.5656 45.8089C66.7301 45.5934 66.9732 45.4518 67.2419 45.415C67.502 45.415 67.5317 45.2961 67.3608 45.088C67.2672 45.0041 67.187 44.9064 67.1229 44.7982H67.1155ZM54.9499 63.5186C55.1071 63.5098 55.2636 63.4899 55.4181 63.4591C55.6261 63.4591 55.7005 63.3402 55.6633 63.1247C55.4032 60.9993 55.0613 58.8589 54.9201 56.7335C54.9201 56.4436 54.8309 56.4139 54.5634 56.5105C53.3239 57.0155 52.1428 57.6534 51.0408 58.413C51.0021 58.4299 50.9672 58.4544 50.938 58.4849C50.9088 58.5154 50.8859 58.5514 50.8707 58.5907C50.8555 58.6301 50.8483 58.6721 50.8494 58.7143C50.8505 58.7566 50.86 58.7981 50.8773 58.8366C50.8748 58.8589 50.8748 58.8813 50.8773 58.9035C51.7833 60.6062 53.0067 62.1198 54.4817 63.3625C54.6526 63.4963 54.7864 63.5781 54.9499 63.5186ZM75.9369 60.1298C74.8932 59.3728 73.809 58.6732 72.6893 58.034C72.4491 57.9211 72.2007 57.8267 71.9461 57.7516C71.8123 57.707 71.7678 57.7516 71.7529 57.8779C71.695 58.6585 71.5783 59.4336 71.4036 60.1966C71.2038 61.4862 70.8956 62.7565 70.4821 63.9942C70.4077 64.1949 70.3409 64.4104 70.2666 64.6408C71.7529 64.1726 74.7256 61.4303 75.9369 60.1149V60.1298ZM70.274 66.4541L70.378 66.4095C73.3401 64.768 76.1116 62.804 78.6421 60.5534C78.7279 60.4936 78.8001 60.4163 78.854 60.3267C78.9079 60.2371 78.9423 60.1371 78.9549 60.0333C78.9676 59.9295 78.9581 59.8242 78.9273 59.7243C78.8964 59.6244 78.8448 59.5321 78.7758 59.4535L76.9328 57.0753C76.9046 57.0293 76.8676 56.9893 76.824 56.9576C76.7803 56.9259 76.7307 56.9032 76.6782 56.8908C76.6257 56.8784 76.5713 56.8764 76.518 56.8851C76.4648 56.8939 76.4138 56.913 76.368 56.9416C76.3058 56.9799 76.2546 57.0337 76.2193 57.0976C75.9369 57.5064 75.6545 57.9225 75.3647 58.3313C75.3302 58.3673 75.3109 58.4152 75.3109 58.4651C75.3109 58.5149 75.3302 58.5628 75.3647 58.5988H75.4093C75.8775 59.067 76.3308 59.5426 76.8064 60.0034C76.9699 60.1595 76.9625 60.2412 76.8064 60.3899C75.2309 61.8167 73.6579 63.2511 72.0873 64.6928C71.9109 64.8753 71.6719 64.9842 71.4185 64.9975C71.1138 64.9975 70.8165 65.0644 70.5118 65.0941C70.378 65.0941 70.3334 65.1461 70.3409 65.2799C70.274 65.6663 70.274 66.0454 70.274 66.4541ZM65.815 54.1027C65.815 54.4371 65.7481 54.7641 65.7481 55.0985C65.7481 55.4329 65.5772 55.6633 65.7481 55.7896C65.919 55.916 66.2163 55.7896 66.4913 55.8268C66.7662 55.864 66.7068 55.7748 66.7068 55.6187C66.7068 55.2248 66.7068 54.8235 66.7737 54.4296C66.8821 53.5892 66.6928 52.7372 66.2386 52.0218C66.1866 51.9549 66.2386 51.8137 66.0528 51.8509C65.867 51.888 65.9785 51.9921 65.9785 52.0738C65.9116 52.765 65.8596 53.4189 65.8224 54.1027H65.815ZM76.1227 54.5709C74.6958 53.6196 73.2987 52.6981 71.9312 51.7245C71.5383 51.4827 71.0914 51.3423 70.6307 51.3158C70.5267 51.3158 70.4969 51.3158 70.5118 51.4347C70.5042 51.5223 70.5287 51.6098 70.5806 51.6808C70.6325 51.7519 70.7084 51.8017 70.7942 51.8211C71.5963 52.0714 72.3502 52.4559 73.0237 52.9582C73.5959 53.3966 74.2276 53.7831 74.8147 54.2141C75.0998 54.4229 75.4158 54.5859 75.7511 54.6972C75.8211 54.7262 75.8991 54.7295 75.9713 54.7063C76.0434 54.6832 76.105 54.6352 76.145 54.5709H76.1227ZM55.2397 52.5271H55.1356C53.7831 53.3446 52.4305 54.1695 51.0705 54.9796C51.0367 54.9955 51.0063 55.018 50.9813 55.0457C50.9562 55.0735 50.9369 55.1059 50.9244 55.1411C50.912 55.1764 50.9067 55.2138 50.9088 55.2511C50.9109 55.2884 50.9204 55.325 50.9367 55.3586C50.964 55.44 51.0221 55.5074 51.0985 55.5463C51.175 55.5853 51.2637 55.5926 51.3455 55.5667C51.514 55.5059 51.6739 55.4235 51.8211 55.3215C52.8839 54.5783 53.9466 53.7534 55.0167 52.9805C55.2174 52.9136 55.3289 52.765 55.2397 52.5271ZM70.601 52.9879C70.7645 53.7311 70.928 53.8871 71.6191 53.9615C71.7025 53.9748 71.7815 54.0079 71.8495 54.0581L74.3168 55.6113C74.47 55.7232 74.6489 55.7948 74.837 55.8194C74.9336 55.8194 75.0525 55.9457 75.1269 55.8194C75.2012 55.693 75.0749 55.5816 74.9634 55.5147L72.1616 53.7459C71.6783 53.4234 71.1533 53.1684 70.601 52.9879ZM68.5275 52.0218C68.312 52.163 68.1485 52.2745 67.9627 52.3859C67.9312 52.4065 67.9062 52.4356 67.8904 52.4698C67.8746 52.5039 67.8688 52.5418 67.8736 52.5792C67.8736 53.627 67.8215 54.6749 67.7918 55.7079C67.7918 55.8417 67.8438 55.8714 67.9553 55.864C68.0418 55.8564 68.1289 55.8564 68.2154 55.864C68.364 55.864 68.4309 55.864 68.4309 55.6559C68.4309 54.4742 68.4978 53.2777 68.5275 52.0144V52.0218ZM52.1778 57.0828C52.2591 56.9131 52.399 56.7785 52.5717 56.7037L54.9944 55.2843C55.131 55.2149 55.235 55.0949 55.2843 54.9499C55.2843 54.8087 55.3363 54.5931 55.1877 54.5709C55.0775 54.5411 54.9623 54.5351 54.8496 54.553C54.7369 54.5709 54.6292 54.6125 54.5337 54.6749C53.7385 55.2769 52.9433 55.8937 52.163 56.518C52.0891 56.568 52.0372 56.6443 52.0179 56.7314C51.9985 56.8184 52.0132 56.9096 52.0589 56.9861C52.0882 57.0264 52.1264 57.0595 52.1704 57.0828H52.1778ZM70.5638 60.8878H70.653C70.653 60.7912 70.705 60.6946 70.7347 60.6054C70.9661 59.593 71.1201 58.5644 71.1955 57.5287C71.2614 57.1362 71.2487 56.7346 71.1584 56.347C71.1584 56.2058 71.0692 56.0275 70.9057 56.0646C70.7422 56.1018 70.7942 56.2801 70.8016 56.399C70.8193 57.6398 70.7647 58.8805 70.6381 60.1149L70.5638 60.8878ZM67.1824 56.5774H68.4458C68.5647 56.5774 68.6464 56.5774 68.639 56.4213C68.6316 56.2653 68.5275 56.3024 68.4458 56.3024H65.867C65.7778 56.3024 65.6738 56.2653 65.6738 56.4288C65.6738 56.5923 65.763 56.5774 65.8744 56.5774H67.1824ZM67.1824 57.1496H68.4458C68.5127 57.1496 68.6241 57.2091 68.639 57.0605C68.6539 56.9118 68.5424 56.9341 68.4458 56.9341H65.8744C65.7852 56.9341 65.6663 56.9341 65.6812 57.0605C65.6961 57.1868 65.8001 57.1496 65.867 57.1496C66.298 57.1496 66.7216 57.1496 67.1452 57.1496H67.1824ZM62.8274 54.6452C62.6788 54.6452 62.5822 54.6898 62.5748 54.8458C62.5662 54.9039 62.5809 54.963 62.6157 55.0104C62.6505 55.0577 62.7025 55.0893 62.7606 55.0985H62.8126C62.8434 55.1023 62.8747 55.0989 62.9041 55.0886C62.9334 55.0783 62.9599 55.0613 62.9815 55.0389C63.0031 55.0166 63.0193 54.9895 63.0286 54.9599C63.038 54.9302 63.0404 54.8988 63.0355 54.8681C63.0355 54.7195 62.9761 54.6452 62.8274 54.6526V54.6452ZM62.924 52.0218C62.8051 52.0218 62.7011 52.0664 62.6937 52.215C62.6862 52.3636 62.7531 52.4454 62.9018 52.4528C62.95 52.4592 62.9988 52.4465 63.0377 52.4173C63.0766 52.3881 63.1025 52.3448 63.1098 52.2968C63.1098 52.2968 63.1098 52.2968 63.1098 52.2447C63.1129 52.2193 63.111 52.1936 63.104 52.1689C63.0971 52.1443 63.0853 52.1213 63.0694 52.1012C63.0535 52.0812 63.0338 52.0645 63.0114 52.0521C62.989 52.0398 62.9644 52.032 62.9389 52.0292L62.924 52.0218Z" fill="black"/>
<path d="M82.7593 76.1671L83.8963 74.7625C83.9264 74.7104 83.9698 74.6671 84.022 74.6371C84.0742 74.6071 84.1334 74.5914 84.1936 74.5916H86.8318C86.8318 74.7031 86.7724 74.7476 86.7204 74.8071C85.9772 75.684 85.3009 76.5535 84.58 77.423C84.5522 77.4441 84.5289 77.4706 84.5115 77.5009C84.4941 77.5312 84.483 77.5647 84.4789 77.5994C84.4747 77.6341 84.4776 77.6692 84.4873 77.7028C84.497 77.7363 84.5134 77.7676 84.5354 77.7946L84.58 77.8392C85.5016 78.9317 86.4082 80.0687 87.3223 81.1315C87.4052 81.1954 87.4609 81.2883 87.4784 81.3916H84.6766C84.6081 81.3979 84.5391 81.3861 84.4765 81.3574C84.4139 81.3287 84.3599 81.2841 84.3199 81.2281C83.7997 80.5889 83.2721 79.9573 82.6924 79.2661V80.9382C82.6924 81.3916 82.6924 81.3916 82.2465 81.3916H80.2622C80.0839 81.3916 80.0244 81.347 80.0244 81.1538V71.4926C80.0244 71.3216 80.069 71.2696 80.2474 71.2771H82.4769C82.685 71.2771 82.7147 71.3514 82.7147 71.5372V76.1299L82.7593 76.1671Z" fill="#FF0019"/>
<path d="M67.985 74.0716C68.9549 74.0596 69.8901 74.432 70.5864 75.1073C71.2826 75.7827 71.6833 76.7061 71.7009 77.6759V77.7651C71.7155 78.2531 71.6339 78.7392 71.4607 79.1956C71.2875 79.652 71.0261 80.0699 70.6914 80.4253C70.3567 80.7807 69.9552 81.0667 69.51 81.2669C69.0648 81.4672 68.5845 81.5778 68.0965 81.5924C67.6085 81.6071 67.1225 81.5254 66.666 81.3522C66.2096 81.179 65.7918 80.9176 65.4364 80.5829C65.081 80.2482 64.795 79.8468 64.5947 79.4016C64.3945 78.9563 64.2838 78.476 64.2692 77.9881V77.7874C64.2593 77.3092 64.3438 76.8337 64.5178 76.3881C64.6917 75.9425 64.9517 75.5355 65.283 75.1905C65.6143 74.8454 66.0103 74.569 66.4484 74.377C66.8865 74.185 67.3582 74.0812 67.8364 74.0716H67.985ZM69.0775 77.7874C69.0972 77.6432 69.0832 77.4965 69.0368 77.3586C68.9903 77.2206 68.9126 77.0954 68.8097 76.9925C68.7068 76.8896 68.5815 76.8119 68.4436 76.7654C68.3057 76.7189 68.1589 76.705 68.0148 76.7247C67.729 76.7247 67.4549 76.8382 67.2528 77.0403C67.0507 77.2424 66.9372 77.5165 66.9372 77.8023C66.9205 77.9439 66.9361 78.0875 66.9828 78.2222C67.0296 78.357 67.1063 78.4793 67.2071 78.5802C67.308 78.681 67.4304 78.7577 67.5651 78.8045C67.6998 78.8512 67.8434 78.8668 67.985 78.8501C68.1355 78.8775 68.2903 78.8688 68.4367 78.8247C68.5831 78.7805 68.7169 78.7023 68.8272 78.5964C68.9375 78.4905 69.021 78.3599 69.071 78.2154C69.121 78.0708 69.1359 77.9165 69.1147 77.7651L69.0775 77.7874Z" fill="#FF0019"/>
<path d="M31.882 77.7578C31.882 76.7723 32.2734 75.8272 32.9703 75.1303C33.6672 74.4335 34.6123 74.042 35.5978 74.042C36.5833 74.042 37.5284 74.4335 38.2253 75.1303C38.9222 75.8272 39.3136 76.7723 39.3136 77.7578C39.3294 78.7433 38.953 79.6947 38.2673 80.4027C37.5816 81.1107 36.6428 81.5174 35.6573 81.5331C34.6717 81.5489 33.7203 81.1725 33.0123 80.4868C32.3043 79.8011 31.8977 78.8622 31.882 77.8767V77.7578ZM36.6977 77.7578C36.715 77.6177 36.7006 77.4754 36.6557 77.3416C36.6107 77.2077 36.5362 77.0856 36.4378 76.9844C36.3394 76.8831 36.2195 76.8052 36.087 76.7564C35.9545 76.7077 35.8127 76.6892 35.6721 76.7025C34.9289 76.7025 34.5351 77.037 34.5351 77.7281C34.5138 77.8791 34.528 78.0331 34.5766 78.1776C34.6252 78.3222 34.7069 78.4535 34.8151 78.561C34.9233 78.6684 35.0551 78.7492 35.2 78.7969C35.3449 78.8445 35.4989 78.8577 35.6498 78.8354C35.7939 78.8561 35.9407 78.8432 36.079 78.7977C36.2172 78.7522 36.343 78.6754 36.4467 78.5732C36.5503 78.471 36.6289 78.3463 36.6763 78.2087C36.7237 78.0711 36.7386 77.9244 36.72 77.7801L36.6977 77.7578Z" fill="#FF0019"/>
<path d="M43.7875 74.0713C44.2709 74.0654 44.7506 74.1551 45.1993 74.3351C45.6479 74.5151 46.0566 74.7819 46.4018 75.1203C46.7471 75.4586 47.0221 75.8618 47.2111 76.3067C47.4002 76.7516 47.4995 77.2295 47.5033 77.7129C47.519 78.2008 47.4383 78.6871 47.266 79.1439C47.0937 79.6007 46.8331 80.0191 46.4991 80.3752C46.1651 80.7313 45.7642 81.0181 45.3193 81.2193C44.8745 81.4204 44.3944 81.532 43.9064 81.5476C43.4184 81.5632 42.9322 81.4826 42.4754 81.3103C42.0186 81.138 41.6002 80.8774 41.2441 80.5433C40.888 80.2093 40.6012 79.8085 40.4 79.3636C40.1988 78.9188 40.0873 78.4386 40.0717 77.9507V77.75C40.0717 76.7645 40.4631 75.8194 41.16 75.1225C41.8569 74.4257 42.802 74.0342 43.7875 74.0342V74.0713ZM44.8725 77.7872C44.8928 77.6425 44.8789 77.4952 44.8321 77.3569C44.7852 77.2186 44.7066 77.0931 44.6027 76.9906C44.4987 76.888 44.3722 76.8112 44.2332 76.7663C44.0942 76.7214 43.9467 76.7096 43.8024 76.7319C43.6558 76.7106 43.5063 76.7223 43.3647 76.7661C43.2232 76.8099 43.0933 76.8847 42.9843 76.9851C42.8754 77.0855 42.7902 77.2089 42.735 77.3464C42.6799 77.4838 42.656 77.6319 42.6653 77.7797C42.6463 77.9294 42.6622 78.0814 42.712 78.2238C42.7618 78.3662 42.8439 78.4951 42.952 78.6003C43.0601 78.7056 43.1912 78.7842 43.3349 78.8301C43.4786 78.876 43.631 78.8879 43.7801 78.8648C43.928 78.8872 44.0792 78.8747 44.2214 78.8282C44.3637 78.7817 44.4931 78.7026 44.5993 78.5971C44.7055 78.4916 44.7855 78.3628 44.8329 78.2209C44.8804 78.0789 44.8939 77.9279 44.8725 77.7797V77.7872Z" fill="#FF0019"/>
<path d="M89.6113 78.5234C89.7478 78.6999 89.9303 78.8355 90.1386 78.9155C90.347 78.9954 90.5733 79.0166 90.7929 78.9767C91.045 78.919 91.2686 78.7742 91.4246 78.568C91.5138 78.4491 91.5881 78.4342 91.7219 78.5234C92.3313 78.9247 92.9481 79.3111 93.5575 79.705C93.6244 79.7496 93.721 79.7793 93.6169 79.8908C93.0852 80.6197 92.3317 81.1568 91.4692 81.4217C90.6799 81.6069 89.8524 81.5377 89.1048 81.224C88.3573 80.9103 87.7282 80.3682 87.3074 79.6753C86.9033 79.0017 86.7229 78.2174 86.7924 77.435C86.8618 76.6525 87.1774 75.9122 87.6939 75.3203C88.1624 74.7472 88.7964 74.3326 89.5093 74.1331C90.2222 73.9336 90.9793 73.9589 91.6773 74.2056C93.1636 74.6218 93.9068 75.7439 94.2412 77.1782C94.2932 77.4161 94.1966 77.4978 93.9588 77.5424C92.5319 77.8322 91.1273 78.1592 89.7153 78.4639L89.6113 78.5234ZM89.3734 77.4384L91.4395 76.9627C91.3176 76.7963 91.1508 76.668 90.9586 76.593C90.7664 76.518 90.5568 76.4993 90.3544 76.5391C90.1244 76.5853 89.9115 76.6934 89.7385 76.8519C89.5656 77.0105 89.4394 77.2132 89.3734 77.4384Z" fill="#FF0019"/>
<path d="M27.1331 76.8884V72.7638C27.1107 72.5684 27.1317 72.3703 27.1946 72.1839C27.2575 71.9974 27.3608 71.8272 27.4971 71.6852C27.6334 71.5433 27.7993 71.4331 27.983 71.3627C28.1667 71.2922 28.3637 71.2631 28.56 71.2775H32.1643C32.3204 71.2775 32.3798 71.3221 32.3724 71.4856V73.4401C32.3724 73.6259 32.313 73.6631 32.142 73.6556H30.4699C29.9943 73.6556 29.8159 73.8414 29.8085 74.3096V75.246C29.8085 75.3798 29.8531 75.4318 29.9868 75.4244H31.0421C31.1833 75.4244 31.2354 75.4244 31.2354 75.6102V77.6019C31.2354 77.7802 31.161 77.81 31.0124 77.8025H30.076C29.8679 77.8025 29.7936 77.8471 29.8085 78.0626V81.1319C29.8085 81.3326 29.8085 81.4143 29.5484 81.4143C28.8052 81.4143 28.062 81.4143 27.3635 81.4143C27.1702 81.4143 27.1256 81.3549 27.1256 81.1765C27.1331 79.7273 27.1331 78.3079 27.1331 76.8884Z" fill="#FF0019"/>
<path d="M49.0492 78.5305V76.9104C49.0492 76.7394 48.9971 76.6725 48.8262 76.6948C48.5587 76.6948 48.1871 76.8137 48.083 76.6354C47.979 76.457 48.0385 76.1152 48.031 75.8402V74.5619C48.031 74.3687 48.0979 74.3241 48.2763 74.3316C48.4546 74.339 48.6553 74.3316 48.8485 74.3316C49.0417 74.3316 49.1309 74.2572 49.1309 74.0492V72.1764C49.1309 72.0054 49.1309 71.9237 49.3539 71.9311H51.5388C51.7171 71.9311 51.7692 71.9831 51.7692 72.1541C51.7692 72.8006 51.7692 73.4398 51.7692 74.0863C51.7692 74.2795 51.8286 74.3687 52.0218 74.3316H52.1407C52.7799 74.3316 52.7799 74.3316 52.7799 74.9855V76.4719C52.7799 76.6651 52.7204 76.7097 52.5346 76.7023C52.3488 76.6948 51.9698 76.5982 51.7915 76.7469C51.6131 76.8955 51.7394 77.2299 51.732 77.49V78.5082C51.7214 78.6396 51.7618 78.77 51.8448 78.8724C51.9278 78.9748 52.0471 79.0413 52.1779 79.0581H53.0251C53.1589 79.0581 53.2258 79.0581 53.2258 79.2439V81.2356C53.2258 81.3917 53.1737 81.4288 53.0325 81.4288H50.3571C50.1865 81.4338 50.0167 81.4044 49.8577 81.3423C49.6987 81.2802 49.5538 81.1867 49.4317 81.0674C49.3097 80.9481 49.2129 80.8054 49.1471 80.6479C49.0814 80.4904 49.0481 80.3212 49.0492 80.1506C49.0455 80.1259 49.0455 80.1009 49.0492 80.0762C49.0492 79.556 49.0492 79.0432 49.0492 78.5305Z" fill="#FF0019"/>
<path d="M76.1822 74.0717C76.78 74.0389 77.3763 74.158 77.9156 74.4179C78.4549 74.6778 78.9196 75.0701 79.2664 75.5581C79.3853 75.7141 79.3778 75.7885 79.1995 75.8925C78.5827 76.2715 77.9733 76.6357 77.3639 77.0667C77.2375 77.1485 77.1632 77.1856 77.0443 77.0667C76.846 76.8551 76.5751 76.726 76.2858 76.7053C75.9965 76.6847 75.71 76.7739 75.4837 76.9552C75.2978 77.1636 75.1866 77.428 75.1678 77.7066C75.1489 77.9852 75.2235 78.2621 75.3796 78.4936C75.5915 78.711 75.8794 78.8379 76.1829 78.8476C76.4863 78.8573 76.7818 78.749 77.0071 78.5456C77.1409 78.4118 77.2227 78.3895 77.3787 78.501C77.9807 78.9023 78.5827 79.2888 79.1921 79.6604C79.3778 79.7793 79.3853 79.8536 79.2589 80.0245C78.9662 80.4149 78.5994 80.7438 78.1795 80.9924C77.7596 81.241 77.2948 81.4045 76.8118 81.4735C76.3287 81.5425 75.8368 81.5157 75.3641 81.3946C74.8914 81.2735 74.4471 81.0605 74.0568 80.7677C73.6664 80.4749 73.3375 80.1081 73.0889 79.6882C72.8403 79.2683 72.6768 78.8036 72.6078 78.3205C72.5388 77.8374 72.5656 77.3455 72.6867 76.8728C72.8078 76.4001 73.0208 75.9559 73.3136 75.5655C73.3965 75.4539 73.4858 75.3472 73.5811 75.2459C73.9058 74.8759 74.3059 74.5797 74.7545 74.3771C75.2032 74.1746 75.69 74.0705 76.1822 74.0717Z" fill="#FF0019"/>
<path d="M58.4948 75.8924V71.5523C58.4948 71.3368 58.5542 71.2847 58.7623 71.2922H60.8655C61.081 71.2922 61.1256 71.3442 61.1256 71.5597V78.2482C61.1256 78.8428 61.2891 78.9914 61.8687 78.9914H63.4294C63.6226 78.9914 63.6969 78.9914 63.6969 79.2366V81.1392C63.6969 81.2952 63.6969 81.3547 63.4888 81.3547H59.6987C59.5364 81.3733 59.372 81.3545 59.2181 81.2997C59.0642 81.2449 58.9249 81.1557 58.8108 81.0387C58.6968 80.9218 58.611 80.7803 58.5601 80.6251C58.5092 80.4699 58.4944 80.3051 58.517 80.1433V75.8552L58.4948 75.8924Z" fill="#FF0019"/>
<path d="M94.9918 78.2409V75.4911C94.9918 74.5696 95.3857 74.1609 96.3221 74.146H99.3616C99.54 74.146 99.6217 74.146 99.6143 74.3764C99.6143 75.0229 99.6143 75.6695 99.6143 76.3086C99.6143 76.487 99.5548 76.5316 99.3839 76.5241H98.3063C97.801 76.5241 97.6375 76.6876 97.6375 77.193V81.1095C97.6375 81.3696 97.5631 81.4216 97.3179 81.4142C96.6193 81.4142 95.9208 81.4142 95.2222 81.4142C95.0364 81.4142 94.9769 81.3696 94.9769 81.1764C94.9992 80.188 94.9918 79.2218 94.9918 78.2409Z" fill="#FF0019"/>
<path d="M99.5845 81.0647C99.4507 81.1093 99.4359 80.9904 99.3764 80.931C99.317 80.8715 99.3095 80.7452 99.2055 80.7749C99.1015 80.8046 99.146 80.9087 99.1238 80.983C99.1015 81.0573 99.1237 81.035 99.0271 81.0647C98.99 80.8483 98.99 80.6271 99.0271 80.4107C99.0866 80.2398 99.3095 80.3364 99.473 80.3661C99.6365 80.3959 99.6291 80.5222 99.5845 80.6485C99.4953 80.8938 99.4879 80.9161 99.5845 81.0647ZM99.5474 80.5445C99.3913 80.4628 99.2724 80.3884 99.146 80.4851C99.1379 80.4927 99.1315 80.5019 99.1271 80.5121C99.1227 80.5224 99.1204 80.5334 99.1204 80.5445C99.1204 80.5556 99.1227 80.5667 99.1271 80.5769C99.1315 80.5871 99.1379 80.5963 99.146 80.604C99.2575 80.6931 99.369 80.6411 99.5251 80.5445H99.5474Z" fill="#FF0019"/>
<path d="M61.839 43.7803C61.9877 43.8323 62.1512 43.7208 62.2701 43.9289C62.3423 44.0583 62.3844 44.2024 62.3934 44.3503C62.4024 44.4982 62.3781 44.6463 62.3221 44.7835C62.2701 44.9025 62.1363 44.895 62.0397 44.7835C61.9348 44.6875 61.8468 44.5744 61.7796 44.4491C61.7796 44.3822 61.7201 44.2931 61.6161 44.3228C61.5845 44.3397 61.5485 44.3467 61.5128 44.3428C61.4772 44.339 61.4435 44.3245 61.4163 44.3012C61.389 44.2779 61.3693 44.247 61.3599 44.2124C61.3505 44.1778 61.3517 44.1412 61.3634 44.1073C61.3634 43.9958 61.408 43.7505 61.6458 43.758L61.839 43.7803Z" fill="black"/>
</g>
<defs>
<clipPath id="clip0_352_1613">
<rect width="127" height="127" fill="white"/>
</clipPath>
</defs>
</svg>
