<svg width="127" height="127" viewBox="0 0 127 127" fill="none" xmlns="http://www.w3.org/2000/svg">
<g clip-path="url(#clip0_349_1541)">
<path d="M63.5037 127.007C98.5758 127.007 127.007 98.5758 127.007 63.5037C127.007 28.4316 98.5758 0 63.5037 0C28.4316 0 0 28.4316 0 63.5037C0 98.5758 28.4316 127.007 63.5037 127.007Z" fill="white"/>
<path d="M68.0903 38.1533L68.0699 49.5943L68.0494 61.0353L67.1096 58.3794V58.3726L65.8906 83.8425C67.0892 87.2203 67.7294 89.025 67.7362 89.0318C67.743 89.0386 68.424 89.0795 69.248 89.1203C71.7405 89.2429 74.8323 89.5085 77.1818 89.8013C77.7266 89.8694 78.1897 89.9035 78.2238 89.8762C78.2578 89.849 78.2646 78.2037 78.2578 63.9909L78.2374 38.1533H68.0903Z" fill="#B1060F"/>
<path d="M49.7371 38.1191V63.984C49.7371 78.2103 49.7507 89.8625 49.7711 89.8829C49.7915 89.9033 50.67 89.8148 51.7324 89.699C52.7948 89.5832 54.259 89.4334 54.9877 89.3721C56.1045 89.2768 59.4551 89.0657 59.8365 89.0589C59.9522 89.0589 59.9591 88.48 59.9727 78.1014L59.9931 67.1439L60.8035 69.4321C60.9261 69.7862 60.967 69.8952 61.0895 70.2425L62.3085 44.7794C62.0498 44.0507 62.186 44.4321 61.8931 43.6013C60.8989 40.7887 60.0544 38.4119 60.0203 38.303L59.9522 38.1123H49.7371V38.1191Z" fill="#B1060F"/>
<path d="M68.0903 38.1533L68.0699 49.5943L68.0494 61.0353L67.1096 58.3794V58.3726L65.8906 83.8425C67.0892 87.2203 67.7294 89.025 67.7362 89.0318C67.743 89.0386 68.424 89.0795 69.248 89.1203C71.7405 89.2429 74.8323 89.5085 77.1818 89.8013C77.7266 89.8694 78.1897 89.9035 78.2238 89.8762C78.2578 89.849 78.2646 78.2037 78.2578 63.9909L78.2374 38.1533H68.0903Z" fill="#B1060F"/>
<path d="M49.7371 38.1191V63.984C49.7371 78.2103 49.7507 89.8625 49.7711 89.8829C49.7915 89.9033 50.67 89.8148 51.7324 89.699C52.7948 89.5832 54.259 89.4334 54.9877 89.3721C56.1045 89.2768 59.4551 89.0657 59.8365 89.0589C59.9522 89.0589 59.9591 88.48 59.9727 78.1014L59.9931 67.1439L60.8035 69.4321C60.9261 69.7862 60.967 69.8952 61.0895 70.2425L62.3085 44.7794C62.0498 44.0507 62.186 44.4321 61.8931 43.6013C60.8989 40.7887 60.0544 38.4119 60.0203 38.303L59.9522 38.1123H49.7371V38.1191Z" fill="#B1060F"/>
<path d="M49.7371 38.1191V52.6383L59.9659 79.7698C59.9659 79.1501 59.9659 78.8096 59.9727 78.1014L59.9931 67.1439L60.8035 69.4321C65.2982 82.1806 67.7158 89.018 67.7294 89.0316C67.7362 89.0384 68.4172 89.0793 69.2413 89.1202C71.7338 89.2427 74.8256 89.5083 77.1751 89.8012C77.7199 89.8693 78.183 89.9033 78.217 89.8761C78.2374 89.8556 78.2511 84.1488 78.2511 76.0924L68.0767 46.8225L68.0699 49.5942L68.0495 61.0352L67.1097 58.3792C66.1903 55.7846 65.5774 54.048 61.8795 43.6013C60.8852 40.7887 60.0408 38.4119 60.0067 38.303L59.9386 38.1123H49.7371V38.1191Z" fill="url(#paint0_radial_349_1541)"/>
<path d="M49.7371 38.1191L59.9863 67.1643V67.1507L60.7967 69.4389C65.2982 82.1806 67.7158 89.018 67.7294 89.0316C67.7362 89.0384 68.4172 89.0793 69.2413 89.1202C71.7338 89.2427 74.8256 89.5083 77.1751 89.8012C77.7131 89.8693 78.183 89.9033 78.2102 89.8761L68.0495 61.0284V61.0352L67.1097 58.3792C66.1903 55.7846 65.5774 54.048 61.8795 43.6013C60.8852 40.7887 60.0408 38.4119 60.0067 38.303L59.9386 38.1123H54.8378L49.7371 38.1191Z" fill="#E50914"/>
</g>
<defs>
<radialGradient id="paint0_radial_349_1541" cx="0" cy="0" r="1" gradientUnits="userSpaceOnUse" gradientTransform="translate(63.5167 63.6987) rotate(-19.1007) scale(1.87925 68.8393)">
<stop/>
<stop offset="1" stop-opacity="0"/>
</radialGradient>
<clipPath id="clip0_349_1541">
<rect width="127" height="127" fill="white"/>
</clipPath>
</defs>
</svg>
