<svg width="127" height="127" viewBox="0 0 127 127" fill="none" xmlns="http://www.w3.org/2000/svg">
<path d="M63.5037 127.007C98.5758 127.007 127.007 98.5758 127.007 63.5037C127.007 28.4316 98.5758 0 63.5037 0C28.4316 0 0 28.4316 0 63.5037C0 98.5758 28.4316 127.007 63.5037 127.007Z" fill="white"/>
<path d="M93.3865 57.8405C76.8362 64.7743 60.6203 72.7782 43.7132 78.7756C40.4655 79.593 36.5713 78.9539 34.4756 76.1224C31.2948 70.3852 37.753 63.0055 41.1641 58.6506C39.0387 62.8049 38.7265 68.9583 44.5901 69.8575C46.0376 70.0756 47.5156 69.9664 48.9154 69.538C55.4998 67.7321 62.1066 66.0154 68.6762 64.1797C61.1182 64.0311 64.0983 65.6661 63.199 57.7216C62.4559 59.7653 61.631 61.8165 60.8506 63.8676C60.8276 63.9653 60.7694 64.0511 60.6872 64.1087C60.605 64.1663 60.5044 64.1915 60.4047 64.1797C59.8919 64.0162 56.5105 64.5439 56.9713 63.8379C58.9085 58.6456 60.8457 53.4434 62.7829 48.2314C63.4146 47.5328 65.5103 48.1422 66.4987 47.9341C67.279 47.9341 65.0644 51.806 65.1164 52.5343C66.5433 51.0926 67.5763 49.0043 69.2113 47.9341H80.3142C81.1317 47.778 79.7494 49.9406 79.742 50.394C79.2292 51.3304 76.1153 50.0893 75.6174 51.0182C74.2648 54.8753 73.7818 53.9166 77.7726 54.0355C78.1813 54.0355 78.1813 54.0355 78.0401 54.4071C77.5645 55.1502 77.5645 56.7926 76.7173 57.1048C75.8106 57.2757 73.7446 56.696 73.2244 57.4243C71.5151 62.1806 71.1212 60.7612 75.9146 60.9767C76.7767 60.8429 75.9146 61.757 75.9815 62.1509C81.7485 60.9395 87.6047 58.71 93.3865 57.6547V57.8405ZM67.3756 62.7603L72.6819 48.5583C66.2089 55.5961 66.7365 53.0174 67.3459 62.7529L67.3756 62.7603Z" fill="#FD6A00"/>
<path d="M51.4644 54.9274C52.2893 52.6979 53.1514 50.4684 53.9688 48.2389C53.9904 48.1355 54.0513 48.0444 54.1385 47.9848C54.2258 47.9252 54.3328 47.9018 54.437 47.9194C54.9573 48.0903 58.4799 47.5106 57.8333 48.3281C55.9011 53.508 53.954 58.6433 52.0217 63.7934C51.9933 63.913 51.921 64.0175 51.8192 64.0864C51.7173 64.1552 51.5934 64.1832 51.4718 64.165C45.8312 64.165 48.1424 65.1014 48.1052 57.2981C47.2878 59.493 46.4678 61.6803 45.6454 63.8603C45.0434 64.5589 42.9848 63.9644 42.0113 64.1501C41.6694 64.1501 41.6545 64.1501 41.7809 63.8009C43.728 58.5987 45.6974 53.3965 47.6371 48.1943C48.3802 47.5403 50.476 48.1274 51.5535 47.9342C51.7988 47.9342 51.8805 48.0234 51.8582 48.2612C51.7096 50.4907 51.5461 52.6756 51.4272 54.8828L51.4644 54.9274Z" fill="#FD6A00"/>
<path d="M54.2513 64.165C53.8426 64.0386 52.2002 64.4771 52.4083 63.8603C54.3851 58.6878 56.3446 53.503 58.2867 48.3057C58.8144 47.5106 60.9844 48.1571 61.9431 47.9565C62.2924 47.9565 62.2998 47.9565 62.1809 48.2983C60.2338 53.5005 58.2644 58.7027 56.3248 63.9048C55.9458 64.4845 54.9053 64.0238 54.2513 64.165Z" fill="#FD6A00"/>
</svg>
