<svg width="127" height="127" viewBox="0 0 127 127" fill="none" xmlns="http://www.w3.org/2000/svg">
<g clip-path="url(#clip0_352_1656)">
<path d="M63.5037 127.007C98.5759 127.007 127.007 98.5759 127.007 63.5037C127.007 28.4316 98.5759 0 63.5037 0C28.4316 0 0 28.4316 0 63.5037C0 98.5759 28.4316 127.007 63.5037 127.007Z" fill="white"/>
<path d="M102.044 72.3624L102.736 70.8761C103.687 68.815 104.621 66.7589 105.537 64.7078L105.619 64.5443C105.628 64.5191 105.646 64.4982 105.669 64.4857C105.693 64.4733 105.72 64.4703 105.745 64.4774C105.812 64.4774 105.827 64.5294 105.835 64.5889C105.835 64.8267 105.887 65.0571 105.909 65.3321C106.048 66.8779 106.194 68.4236 106.347 69.9694C106.474 71.3814 106.615 72.7935 106.756 74.2055C106.756 74.3244 106.756 74.4433 106.756 74.5622C106.756 74.6811 106.719 74.7034 106.615 74.6811C106.342 74.6366 106.063 74.6366 105.79 74.6811C105.679 74.6811 105.634 74.6811 105.627 74.5548C105.627 74.2352 105.575 73.9157 105.56 73.5961C105.47 72.0131 105.337 70.4451 105.188 68.8695C105.144 68.4385 105.084 68 105.032 67.5616C104.95 67.5616 104.95 67.6062 104.935 67.6433C103.866 69.7318 102.926 71.8836 102.119 74.0866C102.059 74.2426 102.015 74.4061 101.955 74.5696C101.896 74.7331 101.903 74.7034 101.807 74.696C101.71 74.6885 101.703 74.6365 101.68 74.5696C100.952 72.4873 100.096 70.4521 99.1164 68.4757C98.9975 68.2007 98.8711 67.9257 98.7448 67.6507L98.6705 67.569C98.6705 67.8588 98.6036 68.1189 98.5739 68.3716C98.455 69.6053 98.3286 70.8092 98.2246 72.028C98.1577 72.8529 98.1057 73.6407 98.0982 74.4507C98.0982 74.6365 98.0982 74.7331 97.853 74.6737C97.6674 74.6292 97.4738 74.6292 97.2882 74.6737C97.1173 74.7108 97.1098 74.6737 97.1321 74.5102C97.199 74.1014 97.2733 73.6927 97.3402 73.2765C97.5037 72.2138 97.63 71.1585 97.7489 70.0883C97.8679 69.0182 97.9868 68.0298 98.0982 67.0116L98.3435 64.7152C98.3435 64.6335 98.3435 64.5369 98.4475 64.5146C98.5516 64.4923 98.6185 64.574 98.663 64.6781C99.0049 65.4212 99.3393 66.2313 99.6738 67.0265C100.417 68.7506 101.16 70.4674 101.903 72.1692C101.954 72.2309 102.001 72.2954 102.044 72.3624Z" fill="black"/>
<path d="M54.3033 74.7106C53.7683 74.7106 53.2406 74.6512 52.7055 74.6363C52.4157 74.6363 52.1259 74.6363 51.836 74.6363C51.5462 74.6363 51.5833 74.6363 51.5908 74.3836C51.6577 71.6413 51.5908 68.8916 51.5908 66.1568C51.5908 65.7183 51.5908 65.2724 51.5908 64.8339C51.5908 64.6927 51.6354 64.6184 51.784 64.6333C52.9285 64.7299 54.073 64.5515 55.2249 64.5887C55.8618 64.5741 56.4947 64.6931 57.0828 64.938C57.9058 65.3672 58.5256 66.1046 58.8069 66.9891C59.1251 67.8792 59.2542 68.8258 59.186 69.7685C59.1584 70.4584 59.0358 71.1411 58.8218 71.7974C58.5892 72.5426 58.145 73.2041 57.5434 73.7015C56.9418 74.1989 56.2086 74.5107 55.433 74.5991C55.06 74.6665 54.6823 74.7038 54.3033 74.7106ZM52.6832 69.5084C52.6832 70.913 52.6832 72.3919 52.6832 73.8337C52.6832 73.9452 52.6832 74.0343 52.8393 74.0418C53.4944 74.1012 54.1536 74.1012 54.8087 74.0418C55.4882 73.99 56.1335 73.7228 56.6507 73.279C57.168 72.8353 57.5302 72.2382 57.6848 71.5744C57.9914 70.358 58.0219 69.0884 57.7739 67.8586C57.6935 67.2595 57.4549 66.6926 57.0828 66.2162C56.8258 65.9219 56.5096 65.685 56.1549 65.5211C55.8002 65.3572 55.4149 65.2699 55.0242 65.265C54.3141 65.2166 53.6015 65.2166 52.8913 65.265C52.7278 65.265 52.6981 65.3393 52.6981 65.4805C52.7204 66.8107 52.6609 68.1187 52.6832 69.4787V69.5084Z" fill="black"/>
<path d="M30.3064 69.6794C30.264 68.4725 30.5935 67.2817 31.2502 66.2682C31.6149 65.7279 32.1047 65.2837 32.6778 64.9731C33.251 64.6626 33.8906 64.495 34.5424 64.4846C35.2752 64.4303 36.0105 64.5474 36.6902 64.8265C37.1943 65.0358 37.6491 65.3483 38.0253 65.7437C38.4016 66.1392 38.691 66.609 38.8751 67.1229C39.2387 67.9996 39.4071 68.945 39.3686 69.8934C39.3301 70.8418 39.0856 71.7705 38.6521 72.6149C38.3104 73.3026 37.7788 73.878 37.1203 74.2731C36.4618 74.6682 35.7039 74.8664 34.9363 74.8444C33.926 74.9105 32.9244 74.6213 32.1048 74.0269C31.2353 73.3404 30.6525 72.3549 30.4699 71.2623C30.3526 70.743 30.2977 70.2116 30.3064 69.6794ZM38.0725 69.7685C38.1081 68.8721 37.9849 67.9764 37.7083 67.1229C37.4614 66.3604 36.922 65.7272 36.2086 65.3621C35.4952 64.9971 34.6661 64.93 33.9033 65.1758C33.6122 65.2712 33.3368 65.4089 33.0858 65.5845C32.461 66.077 32.0253 66.77 31.8521 67.5465C31.6944 68.1308 31.6095 68.7324 31.5995 69.3375C31.5395 70.232 31.6376 71.1301 31.8893 71.9906C32.0538 72.6715 32.4569 73.2708 33.0255 73.6798C33.5941 74.0889 34.2905 74.2806 34.9883 74.2201C35.5532 74.2202 36.1048 74.0491 36.5705 73.7294C37.0362 73.4097 37.394 72.9563 37.5968 72.4291C37.9448 71.5867 38.107 70.6793 38.0725 69.7685Z" fill="black"/>
<path d="M94.7243 69.5308C94.7831 70.6943 94.4989 71.8495 93.9068 72.8528C93.543 73.4664 93.0252 73.9743 92.4048 74.3263C91.7843 74.6782 91.0827 74.862 90.3693 74.8594C89.4832 74.9196 88.5996 74.7097 87.8351 74.2574C86.904 73.6911 86.2338 72.7805 85.9698 71.7232C85.4783 70.1354 85.584 68.4227 86.2671 66.9075C86.5493 66.2632 86.9971 65.7051 87.5649 65.2901C88.1327 64.875 88.8003 64.6176 89.4998 64.5442C90.5194 64.3697 91.5679 64.548 92.4725 65.0495C92.9987 65.3561 93.4538 65.7711 93.8074 66.267C94.161 66.7628 94.4052 67.3282 94.5236 67.9256C94.6644 68.4488 94.732 68.989 94.7243 69.5308ZM86.9508 69.8578C86.9287 70.6593 87.0547 71.4579 87.3224 72.2137C87.5372 72.9316 88.0192 73.5397 88.6689 73.913C89.3187 74.2863 90.0868 74.3962 90.8152 74.2202C91.3032 74.1544 91.7633 73.9541 92.1439 73.6418C92.5245 73.3294 92.8107 72.9173 92.9704 72.4515C93.6681 70.6876 93.684 68.727 93.015 66.952C92.8546 66.4476 92.5477 66.0024 92.1335 65.6729C91.7193 65.3433 91.2164 65.1445 90.6889 65.1016C90.0365 64.9797 89.3621 65.0861 88.7788 65.4027C88.1956 65.7194 87.739 66.2271 87.4859 66.8406C87.083 67.7933 86.9001 68.8246 86.9508 69.8578Z" fill="black"/>
<path d="M79.1771 69.9173V73.9453C79.1621 74.1209 79.1621 74.2974 79.1771 74.473C79.1771 74.6513 79.1771 74.6662 79.0062 74.6365C78.7336 74.5851 78.4538 74.5851 78.1812 74.6365C78.0252 74.6365 77.988 74.6365 77.9954 74.4655C77.9954 73.8041 77.9954 73.1353 78.0475 72.4738C78.0475 71.0767 78.0475 69.6795 78.0475 68.2824C78.0475 67.1676 77.9954 66.0529 77.9731 64.9307C77.9731 64.6483 77.9731 64.6408 78.263 64.6631C78.8793 64.7 79.4974 64.6975 80.1135 64.6557C80.6321 64.6269 81.1522 64.6694 81.6593 64.782C82.1345 64.8722 82.562 65.1291 82.8645 65.5066C83.167 65.884 83.3247 66.3571 83.3091 66.8406C83.3595 67.4967 83.1671 68.1484 82.7683 68.6718C82.3696 69.1952 81.7924 69.5539 81.1465 69.6795C80.8864 69.7613 80.8864 69.7613 81.035 69.9917C82.0011 71.478 83.0044 72.9643 84.0077 74.4507C84.0077 74.5176 84.1415 74.577 84.0969 74.6588C84.0523 74.7405 83.9631 74.6588 83.8888 74.6588C83.5434 74.6142 83.1938 74.6142 82.8484 74.6588C82.7981 74.6733 82.7441 74.6684 82.6973 74.645C82.6505 74.6216 82.6142 74.5814 82.5957 74.5324C81.6221 72.8157 80.5371 71.1733 79.4892 69.5086C79.4892 69.464 79.4 69.412 79.4372 69.3525C79.4744 69.2931 79.5487 69.3525 79.6007 69.3525C80.01 69.3603 80.4181 69.3077 80.8121 69.1965C81.28 69.0797 81.6855 68.7882 81.9453 68.3819C82.2051 67.9756 82.2995 67.4853 82.2092 67.0115C82.209 66.8986 82.1941 66.7862 82.1646 66.6771C82.1001 66.297 81.9039 65.9518 81.6105 65.7018C81.317 65.4518 80.9449 65.313 80.5594 65.3097C80.1432 65.3097 79.7716 65.3097 79.3703 65.3097C79.244 65.3097 79.2068 65.3617 79.1919 65.4881C79.1697 65.8469 79.1697 66.2068 79.1919 66.5656V69.9619L79.1771 69.9173Z" fill="black"/>
<path d="M43.7802 69.7315V73.3284C43.7802 73.7148 43.7802 74.0716 43.8173 74.4952C43.8173 74.6215 43.8173 74.6661 43.6464 74.6438C43.4016 74.59 43.148 74.59 42.9032 74.6438C42.7026 74.6438 42.6654 74.5992 42.6877 74.4357C42.7397 73.9304 42.6877 73.4176 42.7323 72.9494C42.7918 70.9428 42.7323 68.9363 42.7323 66.9223C42.7323 66.2757 42.6951 65.6217 42.6729 64.9678C42.6729 64.6928 42.6729 64.6705 42.9553 64.7002C43.5353 64.7246 44.1163 64.7097 44.6943 64.6556C45.2481 64.6247 45.8036 64.6723 46.3441 64.7968C46.7858 64.889 47.1834 65.1278 47.4722 65.4746C47.7609 65.8214 47.9239 66.2557 47.9345 66.7068C47.9809 67.0718 47.9529 67.4424 47.852 67.7962C47.751 68.1501 47.5794 68.4798 47.3474 68.7653C46.9134 69.2352 46.345 69.5596 45.7198 69.6943C45.5489 69.7389 45.5266 69.7835 45.6232 69.9321C46.5968 71.4185 47.6149 72.9494 48.5959 74.458L48.6777 74.5769C48.6777 74.5769 48.6777 74.7107 48.6033 74.6884C48.1943 74.6289 47.7787 74.6289 47.3697 74.6884C47.2582 74.6884 47.2285 74.6066 47.1839 74.5323C46.738 73.7892 46.2995 73.046 45.8462 72.3028C45.3334 71.3441 44.7166 70.4598 44.1369 69.5457C44.1369 69.4937 44.0254 69.4268 44.0626 69.3599C44.0997 69.293 44.1963 69.3153 44.2632 69.3153C44.7045 69.3163 45.1433 69.2486 45.5638 69.1146C45.9322 69.0006 46.2537 68.7702 46.4801 68.458C46.7066 68.1458 46.8257 67.7687 46.8197 67.3831C46.8436 67.0529 46.811 66.7212 46.7231 66.4021C46.6231 66.0829 46.4263 65.8027 46.16 65.6003C45.8937 65.3979 45.5711 65.2834 45.2368 65.2725C44.8206 65.2725 44.4119 65.2725 44.0031 65.2725C43.8545 65.2725 43.8322 65.3616 43.8248 65.4805C43.8248 65.8224 43.7802 66.1643 43.7802 66.5061V69.7463V69.7315Z" fill="black"/>
<path d="M21.0392 67.0115C21.0392 67.3236 21.0392 67.5763 21.0392 67.8364C21.0392 69.5457 21.0392 71.2327 21.0392 72.9271C21.0392 73.4399 21.0392 73.9527 21.0763 74.4655C21.0763 74.6067 21.0317 74.6587 20.8905 74.629C20.725 74.5845 20.5507 74.5845 20.3852 74.629C20.2663 74.629 20.2068 74.629 20.2142 74.4952L20.2811 72.3029V72.1245C20.2811 70.8165 20.3183 69.5011 20.3332 68.1931C20.3332 67.0264 20.3332 65.8596 20.3332 64.7003C20.3332 64.6111 20.2886 64.4996 20.4149 64.4624C20.5412 64.4253 20.623 64.4624 20.6973 64.5888C21.3959 65.5797 22.1093 66.5408 22.8376 67.4723C23.9895 68.9586 25.1786 70.4449 26.3825 71.9313L26.5163 72.0873C26.5384 72.0223 26.5384 71.9518 26.5163 71.8867C26.5163 70.2443 26.5163 68.6019 26.5163 66.9521C26.5163 66.2758 26.5163 65.5995 26.4494 64.9232C26.4494 64.7448 26.4494 64.6631 26.6798 64.7003C26.8027 64.7226 26.9285 64.7226 27.0514 64.7003C27.2298 64.7003 27.2743 64.7448 27.2595 64.9009V65.1164C27.1554 68.2972 27.1703 71.4631 27.1777 74.6438C27.1777 74.7182 27.2223 74.8296 27.1108 74.8668C26.9994 74.9039 26.9548 74.8222 26.9102 74.7479C25.4239 72.5184 23.7146 70.5193 22.0722 68.431C21.76 68.0222 21.4479 67.6358 21.1283 67.2345C21.1581 67.1601 21.1135 67.123 21.0392 67.0115Z" fill="black"/>
<path d="M57.9671 48.8187V43.847C57.9654 43.7766 57.9815 43.707 58.014 43.6447C58.0465 43.5823 58.0943 43.5291 58.1529 43.4902C59.348 42.5697 60.7347 41.9297 62.2106 41.6174C63.9032 41.3325 65.6424 41.5603 67.2046 42.2714C67.9508 42.6039 68.6648 43.0045 69.3375 43.4679C69.3951 43.5001 69.4424 43.5478 69.4739 43.6057C69.5055 43.6635 69.5201 43.7291 69.5159 43.7949V53.8277C69.5228 53.8818 69.5147 53.9368 69.4924 53.9866C69.4701 54.0364 69.4345 54.0792 69.3896 54.1101C68.1151 55.021 66.6648 55.6563 65.1312 55.9755C63.4072 56.2961 61.6259 56.0565 60.0479 55.2917C59.3828 54.9758 58.7462 54.6028 58.1454 54.177C58.0809 54.1383 58.0286 54.0822 57.9945 54.0152C57.9603 53.9482 57.9457 53.8729 57.9522 53.798C57.9671 52.1407 57.9671 50.4834 57.9671 48.8187ZM69.0031 48.8187V44.0922C69.0087 44.0252 68.9949 43.958 68.9632 43.8987C68.9316 43.8394 68.8835 43.7904 68.8248 43.7578C68.1755 43.3341 67.486 42.9756 66.7662 42.6876C65.3565 42.1047 63.8107 41.9321 62.3072 42.1897C60.9678 42.448 59.7002 42.993 58.5913 43.7875C58.5582 43.8244 58.5336 43.8682 58.5195 43.9158C58.5053 43.9633 58.502 44.0134 58.5096 44.0625V53.5453C58.5038 53.6104 58.5168 53.6759 58.5471 53.7338C58.5774 53.7918 58.6237 53.8398 58.6805 53.8723C59.3025 54.3163 59.9702 54.6925 60.6722 54.9945C61.9441 55.5155 63.3308 55.6924 64.6927 55.5073C66.1578 55.2832 67.5542 54.7348 68.7802 53.902C68.8482 53.8656 68.9045 53.8107 68.9427 53.7436C68.9808 53.6766 68.9992 53.6001 68.9957 53.523C68.9957 51.9574 68.9957 50.3893 68.9957 48.8187H69.0031Z" fill="black"/>
<path d="M62.2774 72.5629C62.3425 72.6425 62.3929 72.7331 62.4261 72.8304C62.5479 73.1573 62.7466 73.4501 63.0052 73.6842C63.2639 73.9183 63.575 74.0868 63.9124 74.1755C64.2891 74.2758 64.6894 74.2361 65.0392 74.064C65.389 73.8918 65.6645 73.5988 65.8149 73.2391C66.0467 72.6952 66.1038 72.0928 65.9784 71.515C65.9274 71.2891 65.8269 71.0773 65.6843 70.8948C65.5417 70.7124 65.3604 70.5638 65.1535 70.4597C64.7076 70.1922 64.2394 69.9915 63.7786 69.7537C63.5151 69.6185 63.266 69.4566 63.0355 69.2706C62.7254 68.9957 62.4884 68.648 62.3457 68.2589C62.203 67.8698 62.1591 67.4514 62.218 67.0411C62.2277 66.4501 62.4198 65.8764 62.7679 65.3987C63.0066 65.0937 63.3144 64.8497 63.6658 64.6869C64.0172 64.5241 64.4023 64.4471 64.7893 64.4623C65.3679 64.4711 65.935 64.6244 66.4392 64.9082C66.4901 64.9268 66.5322 64.9639 66.5569 65.0121C66.5817 65.0603 66.5875 65.1161 66.573 65.1683C66.4615 65.473 66.3797 65.7777 66.2757 66.1047C66.1722 66.0027 66.0823 65.8878 66.0081 65.7629C65.8496 65.5348 65.6386 65.3483 65.3928 65.219C65.1471 65.0896 64.8738 65.0213 64.5961 65.0197C64.321 65.0084 64.0493 65.0842 63.8198 65.2363C63.5903 65.3885 63.4146 65.6091 63.3179 65.8669C63.1234 66.3266 63.0717 66.8341 63.1692 67.3235C63.2187 67.5675 63.3235 67.7969 63.4755 67.994C63.6276 68.1911 63.8228 68.3507 64.0462 68.4606C64.4624 68.691 64.8711 68.8767 65.2501 69.1071C65.4678 69.2156 65.6788 69.3372 65.8818 69.4713C66.2058 69.6913 66.4713 69.987 66.6552 70.3327C66.8391 70.6785 66.9358 71.0639 66.9371 71.4555C66.9891 72.1213 66.8608 72.7888 66.5655 73.3878C66.2966 73.8879 65.8814 74.294 65.3754 74.5517C64.8693 74.8094 64.2967 74.9063 63.734 74.8295C63.1525 74.7851 62.5968 74.5706 62.1362 74.2127C62.0765 74.1796 62.0308 74.126 62.0076 74.0617C61.9843 73.9975 61.9852 73.9271 62.0099 73.8634C62.1062 73.4676 62.1733 73.0652 62.2105 72.6595C62.2105 72.6595 62.218 72.5852 62.2774 72.5629Z" fill="black"/>
<path d="M72.6967 69.6722V73.1502C72.6967 73.5664 72.6967 74.0197 72.7338 74.4508C72.7338 74.6217 72.667 74.6812 72.5035 74.6514C72.2771 74.6143 72.0461 74.6143 71.8197 74.6514C71.5745 74.6514 71.5596 74.6514 71.5596 74.4136L71.6042 68.6541V65.6294C71.6042 65.4436 71.5522 65.3841 71.359 65.3841C70.6425 65.3705 69.9263 65.4202 69.2187 65.5328C69.0775 65.5328 69.0106 65.5328 69.0403 65.3767C69.0775 65.2153 69.0775 65.0476 69.0403 64.8862C69.0031 64.7078 69.0403 64.641 69.2484 64.6558C70.1996 64.7004 71.1583 64.7004 72.1244 64.7004C73.0906 64.7004 74.0195 64.7004 74.9708 64.6558C75.2235 64.6558 75.2309 64.6558 75.2235 64.9085V65.399C75.2235 65.5625 75.2235 65.5625 75.0674 65.5402C74.3724 65.4268 73.6682 65.3795 72.9642 65.399C72.7859 65.399 72.7264 65.4436 72.719 65.6294C72.6521 66.9596 72.6967 68.3196 72.6967 69.6722Z" fill="black"/>
<path d="M59.1413 48.804V44.4788C59.1311 44.3976 59.1455 44.3153 59.1826 44.2424C59.2197 44.1696 59.2778 44.1095 59.3494 44.07C60.4198 43.3572 61.6408 42.9019 62.9166 42.7397C64.1861 42.6251 65.464 42.8321 66.6324 43.3417C67.1456 43.5524 67.6424 43.8008 68.1188 44.0849C68.1803 44.1133 68.2318 44.1599 68.2663 44.2183C68.3008 44.2767 68.3167 44.3442 68.312 44.4119V53.1515C68.3224 53.2091 68.316 53.2684 68.2936 53.3224C68.2712 53.3765 68.2337 53.4229 68.1857 53.4562C67.1152 54.1508 65.9138 54.6187 64.6556 54.8311C63.2657 55.0366 61.8461 54.8352 60.5682 54.2514C60.1584 54.0541 59.759 53.8358 59.3717 53.5974C59.2951 53.561 59.231 53.5027 59.1874 53.43C59.1438 53.3573 59.1226 53.2734 59.1264 53.1887C59.1487 51.6875 59.1413 50.2457 59.1413 48.804ZM61.5269 46.6637C61.5821 46.6858 61.6289 46.7248 61.6606 46.7751C63.2139 48.7668 64.834 50.6916 66.2683 52.7725C66.2683 52.8245 66.3352 52.9063 66.4169 52.8766C66.4987 52.8468 66.4169 52.7725 66.4169 52.7205C66.4169 52.3043 66.4169 51.9179 66.4169 51.5166C66.4169 49.458 66.4169 47.3697 66.4838 45.2962C66.4838 44.9098 66.4838 44.9172 66.0973 44.8801C65.971 44.8801 65.9413 44.8801 65.9413 45.0361C65.9413 45.4449 65.9413 45.8239 65.9413 46.2178C65.9413 47.7041 65.9859 49.1013 65.9413 50.5653C65.9413 50.6173 65.9413 50.6991 65.9041 50.7214C65.867 50.7437 65.8075 50.6693 65.7704 50.6322L64.8265 49.4208C63.5929 47.9345 62.4261 46.3961 61.3039 44.828C61.2519 44.7612 61.2147 44.6645 61.1033 44.7017C60.9918 44.7389 61.0438 44.828 61.0438 44.8949C61.0438 47.4143 61.0438 49.9262 60.9323 52.4381C60.9323 52.6908 60.9323 52.6908 61.1776 52.6685C61.2343 52.661 61.2918 52.661 61.3485 52.6685C61.4897 52.6685 61.5417 52.6685 61.5417 52.505C61.5417 52.2151 61.5417 51.9253 61.5417 51.6355C61.5417 50.1491 61.4748 48.6628 61.4971 47.2359C61.4897 47.0724 61.512 46.8569 61.5269 46.6637Z" fill="black"/>
</g>
<defs>
<clipPath id="clip0_352_1656">
<rect width="127" height="127" fill="white"/>
</clipPath>
</defs>
</svg>
