<svg width="127" height="127" viewBox="0 0 127 127" fill="none" xmlns="http://www.w3.org/2000/svg">
<g clip-path="url(#clip0_349_1532)">
<path d="M63.5037 127.007C98.5758 127.007 127.007 98.5758 127.007 63.5037C127.007 28.4316 98.5758 0 63.5037 0C28.4316 0 0 28.4316 0 63.5037C0 98.5758 28.4316 127.007 63.5037 127.007Z" fill="white"/>
<path d="M77.7874 56.674C78.0996 60.8506 76.8585 64.4178 78.9988 67.8661C79.5339 68.8025 80.5371 69.5085 80.6412 70.6233C79.623 72.7488 76.8733 73.9081 75.2606 75.6843C72.9791 77.3936 71.0395 73.4548 69.7612 71.9684C69.5606 71.6712 69.568 71.6786 69.3153 71.9238C68.0809 73.1707 66.6683 74.2276 65.1238 75.06C60.1149 77.3936 52.5717 77.074 49.6362 71.7083C45.8684 64.8043 50.2233 55.8788 57.9374 54.4891C61.1924 53.7442 64.5033 53.2695 67.8364 53.0697C68.5796 52.6609 68.0148 50.5206 68.0891 49.666C67.9256 45.5488 62.4261 44.8205 59.7507 47.1689C58.5394 48.0384 58.6063 49.5842 57.8036 50.6544C57.6618 50.7884 57.49 50.8866 57.3026 50.9409C57.1152 50.9952 56.9175 51.004 56.726 50.9665C54.9499 50.3199 49.0194 51.4496 49.4653 48.685C49.775 47.0954 50.4197 45.59 51.3564 44.2689C52.2931 42.9478 53.5003 41.8413 54.8978 41.0229C61.0884 37.753 70.2368 37.4706 75.439 42.6876C78.7758 46.344 77.5422 52.4751 77.7874 56.674ZM68.156 60.1966C68.0222 59.5947 68.4978 58.4576 67.7992 58.4725C65.4944 58.3604 63.1973 58.8172 61.1107 59.8028C58.5096 61.1256 57.6847 64.4476 58.6434 67.0784C59.6838 70.4821 64.4104 70.2294 66.246 67.6581C67.9776 65.6218 68.2451 62.664 68.156 60.1966Z" fill="black"/>
<path d="M63.3402 88.3478C52.4335 88.4279 41.8787 84.4916 33.6878 77.2894C33.1527 76.9402 33.3385 75.8626 34.1114 76.1747C47.4019 83.6137 62.9922 85.8189 77.8245 82.3579C81.206 81.7782 84.3421 79.9574 87.6418 79.3852C90.3841 80.8715 83.599 83.4206 82.5214 84.1489C76.5098 86.9289 69.9634 88.3619 63.3402 88.3478Z" fill="#FF9900"/>
<path d="M89.4105 75.06C90.6739 75.1492 93.5054 74.8668 93.6169 76.6727C93.6332 78.3747 93.2909 80.0609 92.6122 81.6218C91.9336 83.1826 90.9339 84.5831 89.6781 85.7319C88.3627 86.6237 88.6674 85.0334 89.1356 84.3274C92.7994 76.0782 89.47 77.2821 82.6106 77.8023C80.8492 76.2491 88.2215 74.7479 89.4105 75.06Z" fill="#FF9900"/>
</g>
<defs>
<clipPath id="clip0_349_1532">
<rect width="127" height="127" fill="white"/>
</clipPath>
</defs>
</svg>
