<svg width="127" height="127" viewBox="0 0 127 127" fill="none" xmlns="http://www.w3.org/2000/svg">
<path d="M63.5037 127.007C98.5758 127.007 127.007 98.5758 127.007 63.5037C127.007 28.4316 98.5758 0 63.5037 0C28.4316 0 0 28.4316 0 63.5037C0 98.5758 28.4316 127.007 63.5037 127.007Z" fill="url(#paint0_linear_352_1607)"/>
<path d="M85.0853 53.8127C81.6444 56.5625 78.8204 60.5013 79.14 65.042C79.296 69.8132 82.1126 74.6363 86.6905 76.2564C84.6766 81.7038 80.4331 90.8671 73.7966 91.1198C70.6307 90.9563 67.8512 89.0538 64.6556 89.0018C60.4419 88.7639 56.4808 92.8142 52.2967 90.4881C41.4019 83.4726 35.1221 60.7614 46.0021 51.3529C51.3009 46.5371 57.5658 49.3314 63.5854 50.6097C65.488 50.7286 67.3013 49.9483 69.0998 49.4058C71.8717 48.2355 74.9571 48.034 77.8577 48.8336C80.7583 49.6333 83.3046 51.3875 85.0853 53.8127Z" fill="white"/>
<path d="M73.9526 35.8057C75.0005 42.1077 69.6943 49.3313 63.0875 49.2644C62.9202 46.0761 63.937 42.9384 65.9425 40.4542C67.948 37.97 70.8007 36.3145 73.9526 35.8057Z" fill="white"/>
<defs>
<linearGradient id="paint0_linear_352_1607" x1="0" y1="63.5037" x2="127" y2="63.5037" gradientUnits="userSpaceOnUse">
<stop stop-color="#52C1DF"/>
<stop offset="0.6" stop-color="#AA59DC"/>
<stop offset="1" stop-color="#FF655B"/>
</linearGradient>
</defs>
</svg>
