<svg width="355" height="314" viewBox="0 0 355 314" fill="none" xmlns="http://www.w3.org/2000/svg">
<path d="M200.354 309.073C169.77 309.061 139.876 299.986 114.452 282.995C89.0288 266.005 69.2172 241.862 57.5228 213.62C45.8283 185.378 42.776 154.304 48.7519 124.329C54.7278 94.3531 69.4635 66.8214 91.0958 45.2147C112.728 23.608 140.285 8.89674 170.283 2.94099C200.281 -3.01476 231.373 0.0524816 259.627 11.7549C287.881 23.4573 312.028 43.2693 329.015 68.6859C346.003 94.1025 355.067 123.982 355.063 154.547C355.013 195.529 338.694 234.817 309.689 263.788C280.684 292.759 241.362 309.046 200.354 309.073ZM200.354 8.42068C171.437 8.43317 143.173 17.0139 119.136 33.0781C95.0986 49.1423 76.3671 71.9684 65.3098 98.6706C54.2525 125.373 51.3658 154.752 57.0149 183.094C62.6639 211.435 76.595 237.466 97.0467 257.896C117.498 278.326 143.552 292.237 171.914 297.87C200.276 303.503 229.673 300.606 256.388 289.544C283.102 278.482 305.935 259.753 321.999 235.724C338.063 211.695 346.637 183.445 346.637 154.547C346.592 115.795 331.164 78.6432 303.738 51.247C276.313 23.8509 239.131 8.44854 200.354 8.42068Z" fill="#00CEDE"/>
<path d="M294.517 248.632C346.519 196.664 346.519 112.406 294.517 60.4379C242.516 8.46938 158.204 8.46935 106.203 60.4379C54.2011 112.406 54.2011 196.664 106.203 248.632C158.204 300.601 242.516 300.601 294.517 248.632Z" fill="#00CEDE"/>
<path opacity="0.5" d="M294.517 248.632C346.519 196.664 346.519 112.406 294.517 60.4379C242.516 8.46938 158.204 8.46935 106.203 60.4379C54.2011 112.406 54.2011 196.664 106.203 248.632C158.204 300.601 242.516 300.601 294.517 248.632Z" fill="white"/>
<path d="M201.449 151.452C196.078 167.031 173.916 243.747 159.128 248.042C135.007 255.052 116.637 252.8 97.4252 253.284C86.5762 253.558 69.7444 201.431 79.5612 201.158C95.2133 200.716 130.752 203.452 136.44 203.263C142.127 203.073 163.257 159.326 183.206 140.337C201.155 123.158 205.241 140.484 201.449 151.452Z" fill="#EB9481"/>
<path d="M103.661 251.873C96.806 254.544 89.7653 256.711 82.5947 258.357C76.928 259.389 60.5596 261.915 58.8111 255.789C57.6103 251.578 67.048 249.01 73.7048 247.01C77.2018 245.957 81.6889 242.799 80.9305 240.694C79.5823 236.757 70.566 239.641 64.5411 242.357C52.8915 247.62 37.1552 257.599 30.8354 251.326C28.5181 248.968 31.8466 245.431 36.5443 242.126C29.108 245.789 21.2714 248.61 18.596 246.083C17.9075 245.431 17.4937 244.541 17.4389 243.594C17.3841 242.648 17.6924 241.716 18.3011 240.989C17.3783 241.312 16.3801 241.352 15.4343 241.105C14.4885 240.857 13.6382 240.333 12.9924 239.599C10.8858 236.989 12.4236 233.599 15.2886 230.252C14.8661 230.162 14.4706 229.974 14.134 229.703C13.7974 229.433 13.529 229.087 13.3505 228.694C9.57971 220.778 35.7227 202.104 44.2755 201.073C61.176 199.18 78.2431 199.328 95.108 201.515C103.935 210.189 103.682 251.873 103.661 251.873Z" fill="#EB9481"/>
<path d="M69.934 225.621C64.0054 225.944 58.2121 227.515 52.9337 230.232C46.2979 233.684 41.6844 238.063 35.9544 242.358C35.9237 242.383 35.9042 242.419 35.9003 242.459C35.8963 242.498 35.9082 242.538 35.9334 242.568C35.9585 242.599 35.9948 242.619 36.0343 242.623C36.0738 242.627 36.1133 242.615 36.144 242.59C38.8616 240.484 50.0476 232.99 52.8915 231.284C58.076 228.162 63.9044 226.261 69.934 225.726V225.621Z" fill="#263238"/>
<path d="M66.458 214.736C59.7457 215.61 53.1393 217.162 46.7402 219.368C39.8516 222.021 34.1005 226.926 28.6023 231.642C25.2528 234.484 21.9665 237.368 18.7644 240.357C18.617 240.484 18.7644 240.715 18.933 240.589C24.5506 235.705 30.3578 231.003 36.3546 226.484C41.8527 222.25 48.13 219.139 54.8295 217.326C58.6636 216.315 62.5608 215.578 66.458 214.863V214.736Z" fill="#263238"/>
<path d="M60.4753 204.968C54.1555 205.599 48.5098 206.147 42.6324 208.926C35.9837 212.415 29.7983 216.722 24.2206 221.747C21.166 224.399 18.2168 227.136 15.3097 229.936C15.1833 229.936 15.3097 230.252 15.4993 230.147C22.1547 224.09 29.1911 218.464 36.5653 213.305C40.0384 210.782 43.8834 208.814 47.9621 207.473C52.0994 206.325 56.3284 205.536 60.6017 205.115C60.6017 205.115 60.5174 204.968 60.4753 204.968Z" fill="#263238"/>
<path d="M138.42 193.158L177.266 240.147C177.266 240.147 199.722 178.189 204.293 150.758C209.033 122.105 199.553 113.684 175.327 143.41C162.178 159.348 149.859 175.953 138.42 193.158Z" fill="#00CEDE"/>
<path d="M175.138 148.294C174.671 148.25 174.222 148.091 173.832 147.831C173.349 147.526 172.985 147.066 172.8 146.526L171.936 147.621C172.284 148.139 172.785 148.536 173.368 148.758C173.929 148.985 174.542 149.051 175.138 148.947C175.686 148.821 176.212 148.758 176.739 148.61C176.212 148.463 175.686 148.4 175.138 148.294ZM165.995 221.979C165.534 221.935 165.089 221.791 164.689 221.558C164.333 221.335 164.041 221.024 163.842 220.655C163.643 220.286 163.542 219.872 163.552 219.452C163.535 218.799 163.327 218.165 162.952 217.63C162.577 217.095 162.053 216.681 161.445 216.442C160.883 216.215 160.264 216.171 159.675 216.315L158.032 216.631C158.573 216.774 159.122 216.886 159.675 216.968C160.15 216.992 160.612 217.13 161.024 217.368C161.387 217.587 161.688 217.896 161.898 218.264C162.109 218.633 162.221 219.049 162.224 219.473C162.231 220.137 162.435 220.783 162.81 221.33C163.185 221.877 163.715 222.301 164.331 222.547C164.893 222.771 165.509 222.823 166.101 222.694C166.655 222.628 167.204 222.522 167.744 222.379C167.07 222.189 166.543 222.126 165.995 222V221.979ZM202.482 142.336C202.229 142.897 202.155 143.522 202.271 144.126C202.397 144.652 202.482 145.179 202.608 145.726C202.756 145.179 202.819 144.652 202.924 144.126C202.959 143.654 203.111 143.198 203.367 142.8C203.585 142.468 203.878 142.191 204.221 141.99C204.565 141.789 204.95 141.67 205.347 141.642C205.347 141.179 205.347 140.736 205.347 140.315C204.725 140.349 204.125 140.559 203.618 140.921C203.11 141.283 202.716 141.781 202.482 142.358V142.336ZM169.555 181.663C169.45 181.115 169.366 180.589 169.218 180.063C169.092 180.589 169.029 181.115 168.881 181.663C168.844 182.132 168.715 182.59 168.502 183.01C168.286 183.376 167.978 183.679 167.608 183.89C167.239 184.1 166.821 184.211 166.396 184.21C165.732 184.217 165.085 184.421 164.538 184.796C163.99 185.17 163.566 185.699 163.32 186.315C163.1 186.878 163.042 187.49 163.151 188.084C163.224 188.637 163.33 189.185 163.467 189.726C163.615 189.188 163.721 188.639 163.783 188.084C163.844 187.621 164.002 187.176 164.247 186.779C164.472 186.426 164.784 186.136 165.153 185.937C165.521 185.738 165.935 185.637 166.353 185.642C166.832 185.641 167.305 185.532 167.736 185.324C168.168 185.116 168.547 184.814 168.846 184.441C169.145 184.067 169.357 183.631 169.465 183.165C169.573 182.699 169.575 182.214 169.471 181.747L169.555 181.663ZM185.587 163.263C185.223 163.557 184.799 163.765 184.344 163.873C183.929 163.97 183.495 163.955 183.088 163.829C182.681 163.703 182.315 163.472 182.027 163.158C181.554 162.704 180.955 162.403 180.309 162.295C179.663 162.186 178.999 162.274 178.403 162.547C177.849 162.791 177.38 163.194 177.055 163.705C176.76 164.168 176.402 164.61 176.128 165.094C176.634 164.8 177.055 164.463 177.518 164.168C177.864 163.851 178.284 163.626 178.74 163.515C179.151 163.397 179.585 163.389 179.999 163.493C180.414 163.596 180.793 163.808 181.1 164.105C181.427 164.456 181.829 164.728 182.276 164.901C182.723 165.075 183.204 165.145 183.682 165.107C184.16 165.068 184.624 164.922 185.037 164.679C185.451 164.437 185.805 164.103 186.071 163.705C186.397 163.265 186.7 162.808 186.977 162.336C186.535 162.631 186.05 162.968 185.587 163.263ZM188.641 200.989C188.168 200.536 187.57 200.235 186.924 200.126C186.278 200.017 185.613 200.105 185.018 200.379C184.464 200.622 183.994 201.025 183.67 201.536C183.375 202 183.017 202.421 182.743 202.926L184.133 202C184.479 201.683 184.899 201.458 185.355 201.347C185.765 201.229 186.2 201.221 186.614 201.324C187.028 201.428 187.408 201.639 187.714 201.936C188.02 202.253 188.387 202.503 188.792 202.673C189.198 202.844 189.634 202.929 190.074 202.926L190.453 201.747C190.114 201.762 189.775 201.702 189.462 201.571C189.149 201.44 188.868 201.241 188.641 200.989ZM144.065 196.589C143.78 196.839 143.444 197.024 143.081 197.133C142.717 197.242 142.335 197.272 141.959 197.221L142.844 198.315L143.223 198.189C143.791 197.95 144.28 197.556 144.634 197.052C144.929 196.589 145.245 196.168 145.519 195.663L144.065 196.589Z" fill="white"/>
<path d="M178.424 226.189C177.582 224.904 176.528 223.725 175.58 222.525L172.61 218.82C170.609 216.315 168.565 213.852 166.501 211.389C162.288 206.483 158.306 201.536 154.114 196.652C152.977 195.325 151.818 193.999 150.617 192.694C149.416 191.389 148.026 190.041 146.783 188.673C146.783 188.673 146.593 188.673 146.657 188.799C147.647 190.041 148.51 191.389 149.501 192.631C150.491 193.873 151.607 195.199 152.555 196.441C154.578 198.925 156.628 201.389 158.706 203.831C162.793 208.652 166.859 213.473 171.03 218.189C172.21 219.515 173.39 220.82 174.548 222.147C175.707 223.473 176.95 224.989 178.277 226.252C178.361 226.357 178.487 226.273 178.424 226.189Z" fill="#263238"/>
<path opacity="0.1" d="M204.293 150.737C199.722 178.105 177.266 240.168 177.266 240.168L152.829 210.526L198.943 124.758C205.178 125.2 206.927 134.905 204.293 150.737Z" fill="black"/>
<path d="M292.961 250.189C268.567 273.84 236.024 287.238 202.039 287.621H200.354C188.131 287.638 175.965 285.959 164.205 282.631C161.803 281.957 159.465 281.242 157.126 280.526C160.329 252.21 172.041 161.578 194.498 129.221C195.516 127.827 196.771 126.623 198.205 125.663C205.958 120.21 220.767 117.789 229.804 124.357C261.509 147.6 282.575 209.242 292.961 250.189Z" fill="white"/>
<path d="M293.972 249.263L293.045 250.189C268.652 273.841 236.109 287.239 202.124 287.621C203.008 275.705 208.106 206.884 208.633 200.379C210.613 176.526 229.109 126.589 229.931 124.379C229.931 124.379 240.253 129.495 250.66 144.105C269.893 171.053 284.85 216.4 293.972 249.263Z" fill="#00CEDE"/>
<path d="M199.027 123.558C199.027 123.684 198.669 124.421 198.205 125.663C194.687 134.337 181.352 168.231 177.582 188.568C175.622 199.284 167.049 261.937 164.205 282.716C161.803 282.042 159.465 281.326 157.126 280.61C155.947 280.21 154.788 279.789 153.63 279.347C157 253.852 166.754 186.716 180.594 152.737C189.568 130.526 198.458 123.937 199.027 123.558Z" fill="#00CEDE"/>
<path opacity="0.1" d="M216.891 178.673L241.496 181.704C241.496 181.704 240.106 204.525 239.6 205.389C239.094 206.252 225.928 211.704 225.043 211.178C224.159 210.652 214.51 203.662 214.089 203.031C213.668 202.399 216.891 178.673 216.891 178.673Z" fill="black"/>
<path d="M254.199 151.578C284.745 201.094 312.531 256.084 302.377 270.126C294.161 281.452 206.358 311.831 181.563 313.726C173.684 314.336 154.177 256.357 167.196 251.684C170.904 250.357 244.782 238.799 245.141 237.389C246.32 232.905 238.189 202.673 230.689 168.231C221.041 123.957 241.306 130.673 254.199 151.578Z" fill="#EB9481"/>
<path d="M137.704 261.957C141.39 260.631 143.581 257.747 136.945 255.515C130.309 253.284 102.27 250.231 104.187 240.547C106.104 230.863 145.013 237.578 156.347 240.273C167.685 242.994 177.538 249.976 183.859 259.768C165.785 260.842 151.944 261.705 137.704 261.957Z" fill="#EB9481"/>
<path d="M116.722 235.473C124.22 234.736 131.778 234.884 139.241 235.915C146.745 236.79 154.086 238.725 161.045 241.663C157.337 240.947 153.672 240.252 150.006 239.558C146.341 238.863 142.675 238.379 138.967 237.936C131.594 237.01 124.2 236.294 116.722 235.473Z" fill="#263238"/>
<path d="M58.8391 253.797L58.825 259.565L187.644 259.88L187.658 254.112L58.8391 253.797Z" fill="#37474F"/>
<path d="M58.8532 253.789L58.8322 259.557L146.383 259.768L142.001 254L58.8532 253.789Z" fill="#263238"/>
<path d="M136.418 259.747L10.8858 259.452L0.626587 174.21L126.18 174.526L136.418 259.747Z" fill="#263238"/>
<path d="M76.1695 217.01C76.1893 218.007 76.0088 218.997 75.639 219.922C75.2691 220.848 74.7172 221.69 74.016 222.398C73.3148 223.107 72.4786 223.668 71.5567 224.048C70.6348 224.428 69.6461 224.619 68.6489 224.61C66.6126 224.605 64.6597 223.802 63.2101 222.372C61.7604 220.943 60.9297 219.003 60.8966 216.968C60.871 215.969 61.0473 214.976 61.4149 214.046C61.7824 213.117 62.3337 212.271 63.0358 211.56C63.7378 210.849 64.5763 210.286 65.5009 209.906C66.4255 209.525 67.4174 209.336 68.4172 209.347C70.4554 209.358 72.4083 210.166 73.8574 211.599C75.3065 213.031 76.1365 214.974 76.1695 217.01Z" fill="white"/>
<path d="M181.416 313.684C159.275 314.926 127.465 311.579 106.8 297.389C104.459 295.854 102.701 293.578 101.807 290.926C92.4325 284.61 92.5589 278.4 92.5589 278.4C85.6071 269.979 86.6183 263.474 86.6183 263.474C86.6183 263.474 75.685 256.042 79.0977 248.737C82.8896 240.484 97.5095 252.568 109.601 254.295C137.324 258.253 178.382 260.147 186.493 260.61L181.416 313.684Z" fill="#EB9481"/>
<path d="M135.702 278.821C127.575 277.755 119.531 276.137 111.624 273.978C103.131 271.086 94.8642 267.567 86.8922 263.452C86.8419 263.424 86.7826 263.417 86.7273 263.433C86.6719 263.449 86.6252 263.486 86.5972 263.536C86.5693 263.587 86.5625 263.646 86.5783 263.701C86.5941 263.756 86.6312 263.803 86.6815 263.831C101.291 273.341 118.233 278.658 135.66 279.199C135.976 279.199 136.124 278.884 135.702 278.821Z" fill="#263238"/>
<path d="M135.744 295.874C127.908 294.147 114.131 291.032 92.6643 278.189C92.6643 278.189 92.4957 278.189 92.6643 278.316C105.075 288.184 119.994 294.396 135.744 296.253C136.166 296.316 136.271 296 135.744 295.874Z" fill="#263238"/>
<path d="M135.597 305.052C122.367 301.6 114.531 297.747 101.891 290.947C101.891 290.947 101.744 290.947 101.891 291.074C115.416 300.316 121.377 302.147 135.597 305.537C135.976 305.642 136.103 305.263 135.597 305.052Z" fill="#263238"/>
<path d="M239.769 223.432L300.734 225.032C300.734 225.032 268.692 167.389 251.018 145.937C232.564 123.579 219.903 125.137 226.56 162.947C229.922 183.322 234.33 203.51 239.769 223.432Z" fill="#00CEDE"/>
<path d="M285.229 198.084L284.408 197.936C283.934 197.879 283.475 197.729 283.059 197.494C282.714 197.261 282.431 196.947 282.233 196.581C282.035 196.214 281.928 195.805 281.922 195.389C281.92 194.91 281.811 194.437 281.603 194.005C281.395 193.574 281.094 193.194 280.721 192.893C280.347 192.593 279.911 192.379 279.445 192.268C278.979 192.157 278.493 192.152 278.025 192.252C277.477 192.378 276.95 192.442 276.424 192.589C276.95 192.736 277.477 192.799 278.025 192.905C278.502 192.932 278.965 193.077 279.373 193.326C279.747 193.539 280.059 193.844 280.281 194.213C280.502 194.582 280.625 195.001 280.637 195.431C280.624 196.079 280.805 196.717 281.158 197.261C281.511 197.805 282.019 198.231 282.617 198.484C283.187 198.703 283.807 198.761 284.408 198.652L285.398 198.463L286.009 198.315L285.229 198.084ZM271.642 219.41C271.266 219.716 270.838 219.952 270.378 220.105C269.963 220.205 269.53 220.2 269.117 220.09C268.705 219.979 268.327 219.767 268.018 219.473C267.563 219.014 266.983 218.699 266.349 218.568C265.716 218.437 265.058 218.495 264.458 218.736C263.882 218.951 263.393 219.351 263.068 219.873C262.773 220.336 262.436 220.757 262.141 221.242C262.646 220.947 263.068 220.631 263.531 220.336C263.883 220.033 264.302 219.817 264.753 219.705C265.175 219.626 265.61 219.65 266.02 219.775C266.431 219.899 266.805 220.121 267.112 220.42C267.588 220.877 268.189 221.18 268.838 221.293C269.487 221.406 270.156 221.322 270.757 221.052C271.294 220.781 271.752 220.375 272.084 219.873C272.379 219.41 272.716 218.989 272.969 218.505C272.505 218.799 272.084 219.136 271.642 219.41ZM267.871 169.831C267.585 170.103 267.363 170.433 267.218 170.799C267.009 171.364 266.951 171.974 267.049 172.568C267.155 173.136 267.218 173.663 267.365 174.21C267.53 173.675 267.643 173.125 267.702 172.568C267.744 172.101 267.903 171.652 268.166 171.263C268.274 171.113 268.393 170.972 268.524 170.842L267.871 169.831ZM252.198 192.189C252.071 191.663 252.008 191.136 251.882 190.589C251.741 191.116 251.629 191.65 251.545 192.189C251.516 192.672 251.372 193.142 251.123 193.557C250.908 193.926 250.601 194.232 250.231 194.446C249.862 194.66 249.444 194.775 249.017 194.778C248.355 194.781 247.709 194.983 247.164 195.359C246.619 195.735 246.2 196.266 245.962 196.884C245.718 197.44 245.666 198.063 245.815 198.652C245.815 199.199 245.962 199.726 246.088 200.252C246.252 199.731 246.365 199.195 246.426 198.652C246.48 198.188 246.638 197.742 246.889 197.347C247.109 196.987 247.419 196.691 247.788 196.488C248.158 196.285 248.574 196.182 248.996 196.189C249.65 196.178 250.287 195.972 250.824 195.597C251.361 195.221 251.773 194.695 252.008 194.084C252.23 193.478 252.295 192.826 252.198 192.189ZM248.574 161.831C248.219 162.138 247.791 162.348 247.331 162.442C246.916 162.543 246.482 162.53 246.074 162.404C245.666 162.278 245.299 162.043 245.014 161.726C244.535 161.282 243.937 160.988 243.294 160.88C242.65 160.771 241.988 160.853 241.391 161.115C240.835 161.367 240.366 161.777 240.042 162.294C239.748 162.757 239.389 163.178 239.116 163.663L240.506 162.757C240.997 162.315 241.635 162.07 242.297 162.07C242.958 162.07 243.596 162.315 244.087 162.757C244.538 163.224 245.118 163.544 245.753 163.675C246.389 163.807 247.049 163.744 247.647 163.494C248.215 163.255 248.704 162.861 249.059 162.357C249.385 161.915 249.681 161.451 249.944 160.968L248.574 161.831Z" fill="white"/>
<path d="M290.959 214.968C289.442 214.779 287.884 214.779 286.346 214.737L281.585 214.526C278.383 214.379 275.265 214.315 271.979 214.231C265.659 214.105 259.149 213.958 252.745 213.937C250.997 213.937 249.227 213.937 247.458 213.937C245.688 213.937 243.771 214.147 241.917 214.189V214.358C243.497 214.358 245.098 214.652 246.678 214.758C248.258 214.863 249.922 214.905 251.566 214.947C254.768 214.947 257.885 215.115 261.172 215.158C267.492 215.158 273.811 215.347 280.131 215.305H285.419C287.252 215.305 289.147 215.305 290.98 215.305C291.043 215.137 291.064 214.989 290.959 214.968Z" fill="#263238"/>
<path d="M280.531 192.315C278.425 188.631 276.318 184.884 274.212 181.179C271.789 176.968 269.514 172.758 267.176 168.421C267.176 168.421 267.302 168.21 267.365 168.421C270.146 172.905 279.541 187.789 281.058 190.315C285.503 197.705 289.948 205.052 294.33 212.547C296.794 216.758 299.512 221.537 301.935 225.726C299.472 225.853 297.004 225.748 294.561 225.41C294.435 225.41 294.267 224.968 294.435 224.968C296.858 224.968 300.144 224.758 300.46 224.779C295.994 217.761 291.605 210.744 287.294 203.726C284.997 199.81 282.743 196.063 280.531 192.315Z" fill="#263238"/>
<path d="M232.29 194.989C231.02 192.979 230.154 190.741 229.741 188.4C230.358 190.418 231.14 192.383 232.08 194.273L231.574 191.747C230.963 188.673 230.352 185.621 229.889 182.547C231.3 187.789 232.48 193.073 233.765 198.4C235.05 203.726 236.356 209.136 237.641 214.505C238.336 217.431 239.052 220.357 239.748 223.305C240.738 223.305 241.517 223.305 242.381 223.494C242.613 223.494 242.634 223.915 242.381 223.936C241.27 223.994 240.156 223.952 239.052 223.81C236.314 214.315 234.228 204.652 232.29 194.989Z" fill="#263238"/>
<path d="M201.871 151.579C210.529 152.294 222.937 137.326 227.15 126.105C227.424 125.347 220.156 97.368 219.292 91.6838C219.103 90.5259 184.891 105.789 184.891 105.789C188.012 112.587 190.283 119.742 191.654 127.094C191.696 127.831 193.486 150.8 201.871 151.579Z" fill="#EB9481"/>
<path d="M223.211 109.2C219.101 113.684 214.077 117.233 208.476 119.609C202.876 121.984 196.83 123.13 190.748 122.968C189.281 117.028 187.271 111.236 184.744 105.663C184.744 105.663 219.019 90.5262 219.187 91.5788C219.608 94.2525 221.42 101.831 223.211 109.2Z" fill="#263238"/>
<path d="M213.183 47.9781C220.367 59.2623 223.716 96.715 217.08 107.073C207.601 122.104 186.998 128.947 172.989 116.357C159.402 104.147 155.947 55.3044 163.762 45.3465C175.264 30.736 202.587 31.2834 213.183 47.9781Z" fill="#EB9481"/>
<path opacity="0.3" d="M217.101 107.073C207.601 122.105 186.998 128.947 172.989 116.357C168.018 111.894 164.415 102.568 162.224 92.0416C162.224 92.0416 166.058 99.3048 170.482 98.9048C171.731 98.7815 172.907 98.2576 173.833 97.4114C174.76 96.5652 175.387 95.4422 175.622 94.21L177.392 93.41C180.571 95.2188 184.161 96.1838 187.819 96.2133C191.477 96.2428 195.082 95.3357 198.289 93.5784C209.56 87.5363 210.108 73.2626 210.108 73.2626L219.798 72.7363C221.378 86.3153 220.851 101.157 217.101 107.073Z" fill="black"/>
<path d="M183.733 79.3047C183.733 79.3047 183.943 79.3047 183.943 79.5152C184.091 82.0415 184.702 84.9047 187.061 85.5363V85.6836C184.238 85.5363 183.459 81.7257 183.733 79.3047Z" fill="#263238"/>
<path d="M185.734 76.4627C189.758 75.789 190.832 83.8732 187.103 84.5258C183.375 85.1785 182.321 77.0522 185.734 76.4627Z" fill="#263238"/>
<path d="M169.914 81.5361C169.914 81.5361 169.724 81.6835 169.745 81.7677C170.166 84.273 170.208 87.1993 168.06 88.3361C168.06 88.3361 168.06 88.5046 168.06 88.4835C170.798 87.7256 170.693 83.8309 169.914 81.5361Z" fill="#263238"/>
<path d="M167.322 79.1996C163.236 79.4311 163.994 87.6206 167.786 87.368C171.578 87.1153 170.735 79.0101 167.322 79.1996Z" fill="#263238"/>
<path d="M188.431 72.3362C187.323 72.1672 186.226 71.9352 185.144 71.6414C183.96 71.5635 182.834 71.0973 181.942 70.3151C181.713 70.0119 181.589 69.6424 181.589 69.2625C181.589 68.8826 181.713 68.5131 181.942 68.2099C182.489 67.6795 183.17 67.3074 183.912 67.1331C184.654 66.9589 185.429 66.989 186.155 67.2204C187.689 67.4145 189.098 68.1635 190.116 69.3256C190.364 69.6102 190.519 69.9646 190.558 70.3403C190.597 70.716 190.519 71.0946 190.335 71.4243C190.15 71.7539 189.868 72.0185 189.527 72.1818C189.186 72.345 188.803 72.3989 188.431 72.3362Z" fill="#263238"/>
<path d="M163.636 75.5361C164.699 75.177 165.74 74.7552 166.754 74.2729C167.916 73.9905 168.948 73.3226 169.682 72.3782C169.868 72.0367 169.933 71.6417 169.864 71.2587C169.795 70.8758 169.597 70.5279 169.303 70.2729C168.669 69.8439 167.93 69.5956 167.165 69.5548C166.4 69.514 165.639 69.6822 164.963 70.0413C163.473 70.5246 162.223 71.5556 161.466 72.9255C161.294 73.2467 161.222 73.6119 161.258 73.9744C161.295 74.3369 161.439 74.6803 161.672 74.9605C161.905 75.2408 162.216 75.4453 162.566 75.5478C162.916 75.6503 163.288 75.6462 163.636 75.5361Z" fill="#263238"/>
<path d="M189.8 102.168C189.294 102.842 188.789 103.726 187.883 103.916C186.947 104.025 185.999 103.931 185.102 103.642C185.102 103.642 184.955 103.642 185.102 103.789C185.525 104.239 186.062 104.564 186.656 104.731C187.25 104.898 187.878 104.9 188.473 104.737C188.967 104.534 189.39 104.19 189.69 103.749C189.99 103.307 190.152 102.786 190.158 102.253C190.095 102.105 189.884 102.084 189.8 102.168Z" fill="#263238"/>
<path d="M186.176 95.0103C185.668 96.0872 184.944 97.0484 184.049 97.8342C183.154 98.6201 182.107 99.2138 180.973 99.5787C179.984 99.8985 178.957 100.083 177.919 100.126H176.76C176.621 100.113 176.49 100.057 176.385 99.9669C176.279 99.8764 176.204 99.7555 176.17 99.6208C176.159 99.5369 176.159 99.4521 176.17 99.3682V99.1366C175.875 97.2208 175.664 94.2524 175.664 94.2524C175.011 94.7155 171.62 96.7997 171.451 95.7892C170.537 87.0425 170.509 78.2258 171.367 69.4734C171.383 69.4213 171.414 69.3756 171.458 69.343C171.502 69.3105 171.555 69.293 171.609 69.293C171.664 69.293 171.717 69.3105 171.76 69.343C171.804 69.3756 171.836 69.4213 171.851 69.4734C172.757 77.5366 172.231 85.7261 173.01 93.8313C174.211 93.0648 175.517 92.4762 176.886 92.084C177.181 92.084 177.181 97.8103 177.392 98.6734C178.986 98.613 180.553 98.2355 182 97.5632C183.446 96.8909 184.745 95.9371 185.818 94.7576C186.071 94.7366 186.303 94.7366 186.176 95.0103Z" fill="#263238"/>
<path d="M178.93 98.9471C180.171 100.183 181.709 101.082 183.396 101.558C184.329 101.78 185.308 101.707 186.198 101.347C188.136 100.568 187.946 98.7155 187.356 97.1365C187.045 96.3241 186.635 95.5533 186.134 94.8418C184.234 96.9454 181.709 98.3843 178.93 98.9471Z" fill="#263238"/>
<path d="M183.396 101.6C184.329 101.822 185.308 101.749 186.198 101.389C188.136 100.61 187.946 98.7577 187.356 97.1787C186.293 97.3582 185.321 97.8934 184.602 98.6966C183.882 99.4999 183.457 100.523 183.396 101.6Z" fill="#FF98BB"/>
<path d="M219.461 84.8624C219.461 84.8624 231.426 55.094 219.461 39.4519C216.322 35.2414 202.861 34.9887 202.861 34.9887C202.244 32.9067 201.058 31.0384 199.435 29.595C197.812 28.1515 195.817 27.1905 193.676 26.8203C185.481 25.0098 173.453 33.7045 173.453 33.7045C173.453 33.7045 158.117 26.7572 149.311 38.4203C140.505 50.0835 155.968 58.7361 155.968 58.7361C155.968 58.7361 155.315 67.3466 168.607 65.8519C181.521 64.3782 199.575 47.4308 199.575 47.4308C199.575 47.4308 201.997 64.1256 210.487 73.7887C213.668 77.3677 219.461 84.8624 219.461 84.8624Z" fill="#263238"/>
<path d="M171.578 35.0732C173.557 32.4989 176.036 30.3507 178.867 28.7575C181.354 27.2261 184.082 26.123 186.935 25.4943C192.033 24.5048 197.594 25.3469 201.049 29.5364C201.904 30.5429 202.55 31.7085 202.951 32.9659C203.353 34.2234 203.501 35.5477 203.388 36.8627C203.388 36.8627 203.198 36.8627 203.219 36.8627C203.914 31.9153 199.385 27.5785 194.94 26.4627C189.77 25.5365 184.44 26.5404 179.962 29.2838C177.004 30.9364 174.259 32.9443 171.788 35.2627C171.761 35.2796 171.729 35.2873 171.698 35.2845C171.666 35.2817 171.636 35.2686 171.612 35.2472C171.588 35.2258 171.572 35.1973 171.566 35.1659C171.56 35.1345 171.564 35.102 171.578 35.0732Z" fill="#263238"/>
<path d="M213.583 79.1154C213.583 79.1154 218.745 65.4733 224.749 67.0312C230.752 68.5891 228.962 86.9259 223.316 90.7786C222.635 91.3254 221.85 91.7287 221.008 91.964C220.167 92.1994 219.287 92.2618 218.42 92.1477C217.554 92.0336 216.72 91.7453 215.968 91.3001C215.217 90.8549 214.563 90.2621 214.047 89.5575L213.583 79.1154Z" fill="#EB9481"/>
<path d="M224.074 72.2734C224.18 72.2734 224.243 72.3787 224.074 72.4208C220.198 75.284 218.934 79.8734 218.387 84.4418C218.518 83.9271 218.762 83.448 219.101 83.0392C219.441 82.6304 219.867 82.3023 220.349 82.0786C220.831 81.8548 221.357 81.7411 221.888 81.7457C222.42 81.7503 222.943 81.873 223.421 82.105C223.449 82.1159 223.472 82.1348 223.489 82.1592C223.505 82.1836 223.514 82.2124 223.514 82.2418C223.514 82.2713 223.505 82.3001 223.489 82.3245C223.472 82.3489 223.449 82.3678 223.421 82.3787C222.601 82.328 221.785 82.5338 221.086 82.9677C220.388 83.4015 219.842 84.0418 219.524 84.7997C218.989 86.0709 218.601 87.3987 218.366 88.7576C218.26 89.1997 217.502 89.1576 217.544 88.7576C216.027 83.1366 218.302 74.3366 224.074 72.2734Z" fill="#263238"/>
</svg>
